<?xml version="1.0" encoding="utf-8"?>
<!-- Generator: Adobe Illustrator 13.0.0, SVG Export Plug-In . SVG Version: 6.00 Build 14948)  -->
<!DOCTYPE svg PUBLIC "-//W3C//DTD SVG 1.1//EN" "http://www.w3.org/Graphics/SVG/1.1/DTD/svg11.dtd">
<svg version="1.1" id="Layer_1" xmlns="http://www.w3.org/2000/svg" xmlns:xlink="http://www.w3.org/1999/xlink" x="0px" y="0px"
	 width="1300px" height="1000px" viewBox="0 0 1300 1000" enable-background="new 0 0 1300 1000" xml:space="preserve">
<linearGradient id="SVGID_1_" gradientUnits="userSpaceOnUse" x1="-208.3428" y1="1004.1074" x2="-205.0406" y2="1003.9214">
	<stop  offset="0.0056" style="stop-color:#FFFFFF"/>
	<stop  offset="0.4008" style="stop-color:#D2D2D2"/>
	<stop  offset="0.7948" style="stop-color:#ABABAB"/>
	<stop  offset="1" style="stop-color:#9C9C9C"/>
</linearGradient>
<path fill="url(#SVGID_1_)" d="M-207.88,1009.658c-0.383-4.57-0.766-9.138-1.148-13.708c0.019,0.232,0.106,0.459,0.26,0.679
	c0.154,0.222,0.377,0.434,0.668,0.636c0.291,0.201,0.651,0.394,1.08,0.573c0.43,0.18,0.929,0.347,1.498,0.498l1.146,13.743
	c-0.568-0.152-1.066-0.322-1.496-0.504c-0.428-0.184-0.788-0.379-1.079-0.585c-0.291-0.204-0.513-0.42-0.668-0.644
	C-207.773,1010.124-207.86,1009.894-207.88,1009.658z"/>
<linearGradient id="SVGID_2_" gradientUnits="userSpaceOnUse" x1="1134.8438" y1="641.1152" x2="1144.0674" y2="641.1152">
	<stop  offset="0" style="stop-color:#3D3D3D"/>
	<stop  offset="0.2665" style="stop-color:#373737"/>
	<stop  offset="0.6178" style="stop-color:#272727"/>
	<stop  offset="1" style="stop-color:#0D0D0D"/>
</linearGradient>
<path fill="url(#SVGID_2_)" d="M1145.013,635.01c-0.849,2.101-1.694,4.203-2.539,6.304c-0.349,0.87-0.819,1.677-1.387,2.392
	c-0.575,0.718-1.244,1.347-1.995,1.867c-0.75,0.522-1.581,0.934-2.474,1.214c-0.89,0.281-1.84,0.435-2.832,0.435l2.495-6.276
	c0.998,0,1.951-0.152,2.846-0.436c0.9-0.283,1.734-0.698,2.489-1.219c0.749-0.522,1.425-1.158,2.003-1.877
	C1144.188,636.695,1144.659,635.885,1145.013,635.01z"/>
<g>
	<polygon fill="#606163" points="1136.281,640.944 1133.786,647.221 189.8,647.288 187.346,641.012 	"/>
</g>
<linearGradient id="SVGID_3_" gradientUnits="userSpaceOnUse" x1="188.4771" y1="641.1592" x2="181.5551" y2="641.1592">
	<stop  offset="0" style="stop-color:#606163"/>
	<stop  offset="0.1268" style="stop-color:#666769"/>
	<stop  offset="0.2942" style="stop-color:#767779"/>
	<stop  offset="0.4841" style="stop-color:#929394"/>
	<stop  offset="0.6908" style="stop-color:#B8B8B9"/>
	<stop  offset="0.9085" style="stop-color:#E8E9E9"/>
	<stop  offset="1" style="stop-color:#FFFFFF"/>
</linearGradient>
<path fill="url(#SVGID_3_)" d="M181.084,641.326c-0.833-2.101-1.667-4.2-2.501-6.303c0.35,0.882,0.822,1.696,1.396,2.425
	c0.574,0.726,1.25,1.366,2.007,1.891c0.757,0.528,1.595,0.948,2.496,1.234c0.897,0.283,1.861,0.438,2.864,0.438l2.454,6.276
	c-1.152,0.041-1.951-0.153-2.849-0.436c-0.896-0.285-1.73-0.701-2.483-1.227c-0.753-0.524-1.425-1.163-1.995-1.886
	C181.901,643.017,181.431,642.205,181.084,641.326z"/>
<linearGradient id="SVGID_4_" gradientUnits="userSpaceOnUse" x1="185.6631" y1="116.8203" x2="1149.9371" y2="623.185">
	<stop  offset="0" style="stop-color:#000000"/>
	<stop  offset="0.1335" style="stop-color:#0D0D0D"/>
	<stop  offset="0.7083" style="stop-color:#424242"/>
	<stop  offset="0.9888" style="stop-color:#575757"/>
</linearGradient>
<path fill="url(#SVGID_4_)" d="M1120.889,84.658c1.292,0,2.538,0.259,3.683,0.725c1.143,0.465,2.188,1.139,3.073,1.969
	c0.886,0.834,1.611,1.825,2.139,2.927c0.521,1.097,0.835,2.31,0.889,3.58l15.048,536.944c0.063,1.398-0.159,2.73-0.606,3.943
	c-0.447,1.214-1.124,2.306-1.979,3.225c-0.854,0.918-1.886,1.661-3.046,2.177c-1.162,0.512-2.446,0.797-3.808,0.797l-948.935,0.067
	c-1.363,0-2.652-0.282-3.81-0.798c-1.162-0.513-2.195-1.257-3.052-2.175c-0.854-0.919-1.532-2.013-1.981-3.225
	c-0.45-1.214-0.669-2.548-0.611-3.946l14.703-537.072c0.056-1.269,0.368-2.48,0.892-3.582c0.521-1.101,1.253-2.092,2.137-2.926
	c0.887-0.832,1.927-1.506,3.071-1.97c1.143-0.466,2.389-0.723,3.687-0.723L1120.889,84.658z"/>
<linearGradient id="SVGID_5_" gradientUnits="userSpaceOnUse" x1="661.2012" y1="922.96" x2="661.2012" y2="639.6488">
	<stop  offset="0" style="stop-color:#F4F4F6"/>
	<stop  offset="0.1142" style="stop-color:#E0E0E1"/>
	<stop  offset="0.3497" style="stop-color:#AAAAAC"/>
	<stop  offset="0.6824" style="stop-color:#565657"/>
	<stop  offset="1" style="stop-color:#000000"/>
</linearGradient>
<path fill="url(#SVGID_5_)" d="M1133.729,643.718c1.359,0,2.686,0.116,3.919,0.324c1.234,0.207,2.377,0.509,3.368,0.883
	c0.993,0.375,1.833,0.819,2.465,1.315c0.635,0.493,1.054,1.039,1.212,1.61l71.62,264.165c0.206,0.755,0.085,1.473-0.315,2.125
	c-0.394,0.655-1.063,1.242-1.955,1.738c-0.892,0.494-2.007,0.894-3.29,1.17c-1.283,0.279-2.733,0.432-4.301,0.432l-1090.476,0.037
	c-1.569,0-3.022-0.153-4.307-0.429c-1.284-0.28-2.4-0.678-3.294-1.175c-0.895-0.491-1.567-1.083-1.965-1.737
	c-0.399-0.653-0.524-1.37-0.324-2.123l70.626-264.234c0.153-0.572,0.576-1.117,1.208-1.612c0.631-0.494,1.47-0.94,2.46-1.314
	c0.989-0.372,2.133-0.673,3.366-0.883c1.232-0.21,2.559-0.324,3.919-0.324L1133.729,643.718z"/>
<g>
	<linearGradient id="SVGID_6_" gradientUnits="userSpaceOnUse" x1="661.167" y1="921.9785" x2="661.167" y2="645.2814">
		<stop  offset="0" style="stop-color:#FFFFFF"/>
		<stop  offset="0.3304" style="stop-color:#A0A0A0"/>
		<stop  offset="0.6536" style="stop-color:#4A4A4A"/>
		<stop  offset="0.8793" style="stop-color:#151515"/>
		<stop  offset="0.9888" style="stop-color:#000000"/>
	</linearGradient>
	<path fill="url(#SVGID_6_)" d="M1143.48,646.24c-0.632-0.496-1.472-0.94-2.465-1.315c-0.991-0.374-2.134-0.676-3.368-0.883
		c-1.233-0.208-2.56-0.324-3.919-0.324l-946.064-0.032c-1.361,0-2.688,0.114-3.919,0.324c-1.233,0.21-2.376,0.511-3.366,0.883
		c-0.723,0.272-1.328,0.595-1.868,0.935c-0.238,0.425-0.474,0.851-0.648,1.314c-0.447,1.199-0.668,2.52-0.61,3.9l7.376,266.473
		h26.779l-6.312-252.867h911.019l-5.523,252.836l26.94-0.002l7.549-266.372c0.054-1.21-0.12-2.368-0.462-3.444
		C1144.427,647.163,1144.044,646.68,1143.48,646.24z"/>
</g>
<linearGradient id="SVGID_7_" gradientUnits="userSpaceOnUse" x1="1206.2891" y1="925.9658" x2="1215.6387" y2="925.9658">
	<stop  offset="0" style="stop-color:#0D0D0D"/>
	<stop  offset="0.6136" style="stop-color:#070707"/>
	<stop  offset="1" style="stop-color:#000000"/>
</linearGradient>
<path fill="url(#SVGID_7_)" d="M1216.404,912.895c-0.457,7.174-0.916,14.346-1.374,21.521c-0.043,0.652-0.333,1.27-0.83,1.827
	c-0.498,0.556-1.207,1.051-2.082,1.467c-0.884,0.412-1.934,0.745-3.117,0.975c-1.184,0.23-4.048,0.354-5.458,0.354l2.908-21.557
	c1.412,0,2.73-0.125,3.916-0.352c1.188-0.224,2.238-0.554,3.116-0.968c0.885-0.411,1.592-0.904,2.091-1.456
	C1216.073,914.155,1216.36,913.544,1216.404,912.895z"/>
<polygon fill="#333333" points="1206.451,917.48 1205.096,939.037 117.311,939.08 115.976,917.518 "/>
<linearGradient id="SVGID_8_" gradientUnits="userSpaceOnUse" x1="117.0107" y1="925.5332" x2="106.6557" y2="926.5687">
	<stop  offset="0" style="stop-color:#0D0D0D"/>
	<stop  offset="0.0975" style="stop-color:#131313"/>
	<stop  offset="0.2262" style="stop-color:#232323"/>
	<stop  offset="0.3724" style="stop-color:#3F3F3F"/>
	<stop  offset="0.5314" style="stop-color:#656565"/>
	<stop  offset="0.7009" style="stop-color:#969696"/>
	<stop  offset="0.8763" style="stop-color:#D1D1D1"/>
	<stop  offset="1" style="stop-color:#FFFFFF"/>
</linearGradient>
<path fill="url(#SVGID_8_)" d="M107.354,934.445c-0.453-7.175-0.905-14.351-1.357-21.526c0.043,0.65,0.333,1.263,0.832,1.817
	c0.501,0.553,1.212,1.047,2.097,1.458c0.88,0.411,1.938,0.743,3.126,0.972c1.188,0.228,2.509,0.352,3.925,0.352l2.343,21.602
	c-1.412,0-3.737-0.163-4.922-0.395c-1.186-0.229-2.24-0.562-3.123-0.979c-0.879-0.413-1.589-0.91-2.09-1.469
	C107.684,935.718,107.395,935.101,107.354,934.445z"/>
<linearGradient id="SVGID_9_" gradientUnits="userSpaceOnUse" x1="513.0288" y1="858.2334" x2="787.6729" y2="858.2334">
	<stop  offset="0" style="stop-color:#F4F4F4"/>
	<stop  offset="0.1633" style="stop-color:#E0E0E0"/>
	<stop  offset="0.4998" style="stop-color:#AAAAAA"/>
	<stop  offset="0.9769" style="stop-color:#555555"/>
	<stop  offset="0.9831" style="stop-color:#545454"/>
</linearGradient>
<path fill="url(#SVGID_9_)" d="M766.214,822.791l-230.019,0.004c-2.354,0-4.615,0.219-6.688,0.613
	c-2.076,0.395-3.966,0.968-5.577,1.673c-1.613,0.707-2.944,1.552-3.899,2.488c-0.956,0.938-1.536,1.971-1.643,3.06l-5.34,54.577
	c-0.114,1.162,0.273,2.273,1.075,3.285c0.8,1.014,2.014,1.926,3.549,2.694c1.537,0.767,3.396,1.392,5.487,1.821
	c2.09,0.431,4.41,0.669,6.87,0.669l240.415-0.008c2.465,0,4.791-0.237,6.894-0.668c2.104-0.43,3.98-1.053,5.539-1.821
	c1.557-0.768,2.795-1.683,3.623-2.694s1.244-2.122,1.163-3.287c0.081,1.165-0.335,2.275-1.163,3.287s-2.066,1.927-3.623,2.694
	c-1.559,0.769-3.435,1.392-5.539,1.821c-2.103,0.431-4.429,0.668-6.894,0.668l-240.415,0.008c-2.46,0-4.78-0.238-6.87-0.669
	c-2.092-0.43-3.951-1.055-5.487-1.821c-1.536-0.769-2.749-1.681-3.549-2.694c-0.802-1.012-1.189-2.123-1.075-3.285l1.711-17.511
	l271.665-0.005l-2.618-37.065c-0.075-1.087-0.628-2.119-1.558-3.057c-0.931-0.938-2.239-1.781-3.831-2.489
	c-1.593-0.708-3.468-1.278-5.533-1.671C770.82,823.013,768.566,822.791,766.214,822.791z"/>
<linearGradient id="SVGID_10_" gradientUnits="userSpaceOnUse" x1="783.1602" y1="887.8848" x2="515.8559" y2="872.5409">
	<stop  offset="0" style="stop-color:#383838"/>
	<stop  offset="0.4335" style="stop-color:#7D7D7D"/>
	<stop  offset="0.8073" style="stop-color:#B2B2B2"/>
	<stop  offset="0.9888" style="stop-color:#C7C7C7"/>
</linearGradient>
<path fill="url(#SVGID_10_)" d="M786.425,867.69l-271.665,0.005l-1.711,17.511c-0.114,1.162,0.273,2.273,1.075,3.285
	c0.8,1.014,2.014,1.926,3.549,2.694c1.537,0.767,3.396,1.392,5.487,1.821c2.09,0.431,4.41,0.669,6.87,0.669l240.415-0.008
	c2.465,0,4.791-0.237,6.894-0.668c2.104-0.43,3.98-1.053,5.539-1.821c1.557-0.768,2.795-1.683,3.623-2.694s1.244-2.122,1.163-3.287
	L786.425,867.69z"/>
<g>
	<linearGradient id="SVGID_11_" gradientUnits="userSpaceOnUse" x1="515.0981" y1="850.1221" x2="786.8253" y2="866.6908">
		<stop  offset="0" style="stop-color:#474747"/>
		<stop  offset="0.1449" style="stop-color:#5C5C5C"/>
		<stop  offset="0.4435" style="stop-color:#919191"/>
		<stop  offset="0.8666" style="stop-color:#E6E6E6"/>
		<stop  offset="0.9831" style="stop-color:#FFFFFF"/>
	</linearGradient>
	<path fill="url(#SVGID_11_)" d="M522.921,894.311c-2.174-0.446-4.127-1.096-5.777-1.918l0,0c-1.651-0.83-3.01-1.829-3.973-3.044
		l0,0c-0.762-0.951-1.272-2.075-1.371-3.29l0,0c0,0-0.002,0-0.002-0.004l0,0c-0.003-0.036-0.004-0.071-0.008-0.104l0,0
		c0-0.012,0-0.025-0.003-0.033l0,0c0-0.033-0.002-0.067-0.003-0.1l0,0c0-0.009,0-0.018,0-0.027l0,0
		c-0.001-0.035-0.001-0.071-0.001-0.108l0,0c-0.003-0.025-0.003-0.052-0.003-0.079l0,0c0-0.168,0.007-0.36,0.028-0.538l0,0
		l1.829-18.7h0.001l3.51-35.877c0.15-1.509,0.936-2.821,2.039-3.898l0,0c1.105-1.086,2.557-1.987,4.266-2.74l0,0
		c1.712-0.752,3.682-1.344,5.833-1.752l0,0c2.151-0.411,4.482-0.636,6.907-0.636l0,0H766.21v1.33v1.332l-230.015,0.003
		c-2.283,0-4.471,0.213-6.473,0.591l0,0c-1.996,0.383-3.808,0.932-5.321,1.595l0,0c-1.511,0.663-2.724,1.443-3.527,2.237l0,0
		c-0.812,0.798-1.184,1.556-1.248,2.216l0,0l-3.483,35.6l268.935-0.007l-2.517-35.632c-0.045-0.661-0.386-1.397-1.171-2.193l0,0
		c-0.775-0.783-1.961-1.564-3.453-2.225l0,0c-1.494-0.662-3.285-1.213-5.274-1.591l0,0c-1.986-0.382-4.17-0.594-6.453-0.594l0,0
		v-1.332v-1.33c2.426,0,4.756,0.225,6.894,0.633l0,0c2.145,0.411,4.101,1.003,5.793,1.755l0,0c1.691,0.753,3.123,1.66,4.208,2.75
		l0,0c1.077,1.082,1.838,2.411,1.947,3.929l0,0l2.716,38.493l-271.884,0.005l-1.595,16.318c-0.011,0.102-0.016,0.188-0.015,0.259
		l0,0c0.003,0.652,0.232,1.304,0.803,2.031l0,0c0.635,0.808,1.705,1.639,3.125,2.348l0,0c1.418,0.709,3.188,1.305,5.195,1.717l0,0
		c2.003,0.412,4.247,0.646,6.631,0.646l0,0l240.417-0.007c2.39,0,4.639-0.23,6.657-0.647l0,0c2.02-0.412,3.806-1.009,5.252-1.722
		l0,0c0.093-0.045,0.179-0.09,0.266-0.134l0,0c1.138-0.589,2.043-1.254,2.668-1.919l0,0c0.098-0.101,0.187-0.205,0.27-0.306l0,0
		c0.613-0.759,0.865-1.453,0.866-2.129l0,0c0-0.012,0-0.025,0-0.036l0,0c-0.001-0.027-0.001-0.054-0.001-0.084l0,0
		c-0.001-0.024-0.004-0.052-0.004-0.076l0,0l0,0c0-0.003,0-0.008,0-0.014l0,0l2.488-0.164c0,0.007,0,0.012,0,0.015l0,0h0.001
		c0.005,0.107,0.009,0.229,0.011,0.359l0,0c0.003,1.443-0.573,2.777-1.48,3.875l0,0c-0.993,1.207-2.371,2.203-4.039,3.029l0,0
		c-1.671,0.824-3.642,1.475-5.826,1.919l0,0c-2.188,0.449-4.589,0.693-7.128,0.693l0,0l-240.417,0.007
		C527.494,895.005,525.095,894.761,522.921,894.311L522.921,894.311z"/>
</g>
<g>
	<linearGradient id="SVGID_12_" gradientUnits="userSpaceOnUse" x1="513.7666" y1="871.874" x2="785.4904" y2="888.4425">
		<stop  offset="0" style="stop-color:#474747"/>
		<stop  offset="0.1449" style="stop-color:#5C5C5C"/>
		<stop  offset="0.4435" style="stop-color:#919191"/>
		<stop  offset="0.8666" style="stop-color:#E6E6E6"/>
		<stop  offset="0.9831" style="stop-color:#FFFFFF"/>
	</linearGradient>
	<path fill="url(#SVGID_12_)" d="M522.921,894.311c-2.174-0.446-4.127-1.096-5.777-1.918l0,0c-1.651-0.83-3.01-1.829-3.973-3.044
		l0,0c-0.855-1.068-1.393-2.36-1.392-3.746l0,0c0-0.194,0.014-0.373,0.028-0.538l0,0l1.829-18.7l272.787-0.007h1.155l1.329,18.765
		c0.005,0.107,0.009,0.229,0.011,0.359l0,0c0.003,1.443-0.573,2.777-1.48,3.875l0,0c-0.993,1.207-2.371,2.203-4.039,3.029l0,0
		c-1.671,0.824-3.642,1.475-5.826,1.919l0,0c-2.188,0.449-4.589,0.693-7.128,0.693l0,0l-240.417,0.007
		C527.494,895.005,525.095,894.761,522.921,894.311L522.921,894.311z M515.883,869.025l-1.595,16.318
		c-0.011,0.102-0.016,0.188-0.015,0.259l0,0c0.003,0.652,0.232,1.304,0.803,2.031l0,0c0.635,0.808,1.705,1.639,3.125,2.348l0,0
		c1.418,0.709,3.188,1.305,5.195,1.717l0,0c2.003,0.412,4.247,0.646,6.631,0.646l0,0l240.417-0.007c2.39,0,4.639-0.23,6.657-0.647
		l0,0c2.02-0.412,3.806-1.009,5.252-1.722l0,0c1.444-0.711,2.541-1.54,3.204-2.361l0,0c0.613-0.755,0.864-1.445,0.865-2.126l0,0
		c0-0.059-0.001-0.131-0.005-0.185l0,0l-1.153-16.276L515.883,869.025L515.883,869.025z M785.18,867.789l1.245-0.099L785.18,867.789
		L785.18,867.789z"/>
</g>
<linearGradient id="SVGID_13_" gradientUnits="userSpaceOnUse" x1="661.2451" y1="612.1455" x2="661.2451" y2="115.0832">
	<stop  offset="0" style="stop-color:#E0E0E0"/>
	<stop  offset="0.1379" style="stop-color:#C3C3C3"/>
	<stop  offset="0.5532" style="stop-color:#6E6E6E"/>
	<stop  offset="0.8465" style="stop-color:#383838"/>
	<stop  offset="0.9888" style="stop-color:#242424"/>
</linearGradient>
<polygon fill="url(#SVGID_13_)" points="1116.753,617.116 205.737,617.116 218.157,114.059 1105.888,114.059 "/>
<g>
	<linearGradient id="SVGID_14_" gradientUnits="userSpaceOnUse" x1="697.7783" y1="24.2671" x2="1206.3822" y2="580.1439">
		<stop  offset="0" style="stop-color:#BDBDBD"/>
		<stop  offset="0.3931" style="stop-color:#828282"/>
		<stop  offset="0.7862" style="stop-color:#4D4D4D"/>
		<stop  offset="0.9775" style="stop-color:#383838"/>
	</linearGradient>
	<path fill="url(#SVGID_14_)" d="M1140.089,640.147c1.16-0.516,2.192-1.259,3.046-2.177c0.854-0.919,1.531-2.011,1.979-3.225
		c0.447-1.213,0.669-2.545,0.606-3.943l-15.048-536.944c-0.054-1.27-0.367-2.483-0.889-3.58c-0.527-1.102-1.253-2.093-2.139-2.927
		c-0.885-0.83-1.931-1.504-3.073-1.969c-1.145-0.466-2.391-0.725-3.683-0.725l-489.08-0.032
		c9.257,124.432,56.757,442.931,300.064,556.333l204.408-0.015C1137.643,640.944,1138.927,640.659,1140.089,640.147z"/>
</g>
<path fill="#333333" d="M1163.086,790.725c0,4.472-3.709,8.095-8.285,8.095h-980.87c-4.576,0-8.284-3.623-8.284-8.095
	l33.139-125.197c0-4.471,3.708-8.094,8.285-8.094h914.594c4.575,0,8.284,3.623,8.284,8.094L1163.086,790.725z"/>
<g>
	<path fill="#696969" d="M200.471,697.245c0.352,0.169,0.789,0.311,1.287,0.405c0.501,0.096,1.06,0.149,1.665,0.149h43.656
		c0.604,0,1.187-0.053,1.733-0.148c0.542-0.095,1.045-0.234,1.475-0.406c0.435-0.168,0.798-0.373,1.068-0.601
		c0.27-0.225,0.447-0.473,0.506-0.734l3.387-15.425c0.055-0.257-0.011-0.501-0.181-0.724c-0.171-0.222-0.444-0.422-0.796-0.589
		c-0.354-0.167-0.79-0.304-1.285-0.398c-0.497-0.092-1.054-0.146-1.653-0.146h-43.199c-0.597,0-1.181,0.053-1.719,0.146
		c-0.541,0.095-1.041,0.23-1.472,0.396c-0.434,0.17-0.797,0.37-1.072,0.59c-0.274,0.225-0.456,0.467-0.52,0.724l-3.824,15.426
		c-0.062,0.262-0.004,0.511,0.163,0.735C199.851,696.87,200.118,697.075,200.471,697.245z M258.685,697.247
		c0.358,0.17,0.799,0.31,1.299,0.404c0.501,0.096,1.064,0.148,1.665,0.148l43.664,0.001c0.599,0,1.184-0.054,1.722-0.147
		c0.541-0.097,1.04-0.235,1.466-0.405c0.428-0.171,0.784-0.375,1.047-0.601c0.268-0.226,0.435-0.476,0.484-0.736l2.903-15.425
		c0.048-0.258-0.028-0.501-0.204-0.724c-0.178-0.22-0.458-0.422-0.819-0.589c-0.36-0.167-0.798-0.302-1.297-0.396
		c-0.5-0.094-1.056-0.146-1.653-0.146l-43.206-0.003c-0.597,0-1.175,0.055-1.711,0.149c-0.536,0.092-1.033,0.229-1.461,0.396
		c-0.427,0.167-0.789,0.369-1.055,0.59c-0.266,0.222-0.439,0.466-0.498,0.723l-3.339,15.425c-0.057,0.262,0.013,0.51,0.186,0.734
		C258.049,696.872,258.324,697.077,258.685,697.247z M321.672,678.777c-0.533,0.095-1.023,0.229-1.446,0.396
		c-0.421,0.167-0.777,0.369-1.032,0.589c-0.262,0.223-0.428,0.466-0.474,0.724l-2.855,15.425c-0.047,0.261,0.028,0.511,0.206,0.736
		c0.181,0.226,0.462,0.43,0.826,0.601c0.363,0.17,0.807,0.309,1.313,0.405c0.503,0.094,1.069,0.147,1.672,0.147l43.652,0.002
		c0.604,0,1.185-0.054,1.723-0.147c0.538-0.095,1.029-0.236,1.449-0.407c0.423-0.17,0.776-0.375,1.033-0.6
		c0.255-0.226,0.416-0.475,0.457-0.735l2.416-15.424c0.039-0.259-0.043-0.503-0.228-0.726c-0.183-0.221-0.467-0.42-0.833-0.589
		c-0.364-0.168-0.807-0.302-1.312-0.396c-0.5-0.093-1.061-0.147-1.658-0.147h-43.197
		C322.786,678.631,322.207,678.684,321.672,678.777z M376.429,697.655c0.507,0.094,1.071,0.147,1.676,0.147h43.66
		c0.603,0,1.181-0.053,1.712-0.147c0.534-0.095,1.021-0.233,1.437-0.404c0.417-0.171,0.763-0.374,1.012-0.601
		c0.249-0.228,0.398-0.475,0.433-0.734l1.928-15.427c0.033-0.257-0.058-0.501-0.249-0.723c-0.189-0.222-0.482-0.423-0.85-0.589
		c-0.368-0.167-0.817-0.305-1.32-0.398c-0.504-0.093-1.064-0.147-1.66-0.147H381c-0.597,0-1.173,0.054-1.704,0.146
		c-0.531,0.095-1.019,0.229-1.433,0.396c-0.417,0.169-0.767,0.368-1.018,0.589c-0.25,0.223-0.41,0.467-0.449,0.726l-2.368,15.424
		c-0.04,0.263,0.044,0.51,0.23,0.735c0.186,0.225,0.475,0.43,0.846,0.6C375.469,697.419,375.919,697.561,376.429,697.655z
		 M484.828,679.18c-0.374-0.169-0.828-0.307-1.336-0.398c-0.509-0.095-1.072-0.146-1.668-0.146h-43.198
		c-0.597,0-1.168,0.051-1.7,0.144c-0.528,0.094-1.01,0.231-1.419,0.398c-0.412,0.166-0.751,0.368-0.997,0.589
		c-0.244,0.222-0.397,0.466-0.426,0.723l-1.881,15.427c-0.035,0.26,0.059,0.507,0.25,0.734c0.195,0.227,0.49,0.43,0.863,0.601
		c0.375,0.171,0.829,0.31,1.34,0.406c0.509,0.093,1.079,0.146,1.679,0.146l43.65,0.002c0.604,0,1.182-0.055,1.715-0.147
		c0.531-0.097,1.015-0.235,1.425-0.406c0.412-0.17,0.752-0.374,0.992-0.601c0.241-0.226,0.387-0.474,0.412-0.733l1.442-15.428
		c0.026-0.257-0.072-0.498-0.271-0.722C485.498,679.546,485.202,679.345,484.828,679.18z M542.459,679.18
		c-0.379-0.166-0.839-0.305-1.35-0.395c-0.508-0.096-1.075-0.148-1.67-0.148l-43.196-0.001c-0.596,0-1.169,0.051-1.694,0.146
		c-0.527,0.094-1.003,0.229-1.409,0.398c-0.406,0.165-0.74,0.366-0.98,0.588c-0.24,0.224-0.384,0.465-0.406,0.722l-1.393,15.428
		c-0.024,0.26,0.076,0.509,0.274,0.733c0.202,0.227,0.504,0.431,0.882,0.601c0.379,0.171,0.836,0.31,1.352,0.406
		c0.513,0.093,1.083,0.147,1.685,0.147h43.649c0.604,0,1.182-0.053,1.709-0.146c0.529-0.097,1.007-0.235,1.414-0.407
		c0.406-0.167,0.737-0.374,0.974-0.599c0.233-0.227,0.371-0.474,0.388-0.734l0.955-15.428c0.018-0.254-0.087-0.498-0.294-0.721
		C543.146,679.549,542.839,679.347,542.459,679.18z M600.097,679.182c-0.386-0.166-0.847-0.305-1.361-0.396
		c-0.513-0.096-1.08-0.146-1.678-0.146h-43.194c-0.595,0-1.168,0.051-1.688,0.146c-0.525,0.09-0.997,0.229-1.4,0.395
		c-0.399,0.167-0.727,0.369-0.959,0.59c-0.231,0.223-0.366,0.467-0.379,0.721l-0.912,15.428c-0.014,0.261,0.093,0.508,0.301,0.734
		c0.206,0.225,0.513,0.432,0.899,0.599c0.384,0.172,0.847,0.311,1.363,0.407c0.519,0.095,1.09,0.146,1.691,0.146l43.649,0.002
		c0.602,0,1.177-0.051,1.703-0.148c0.527-0.097,1.001-0.233,1.401-0.405c0.402-0.169,0.726-0.373,0.954-0.599
		c0.224-0.229,0.354-0.475,0.365-0.736l0.47-15.428c0.01-0.254-0.106-0.497-0.317-0.72
		C600.794,679.549,600.482,679.348,600.097,679.182z M658.652,679.771c-0.22-0.221-0.534-0.421-0.927-0.588
		c-0.39-0.167-0.858-0.303-1.373-0.396c-0.517-0.094-1.087-0.145-1.684-0.145l-43.19-0.003c-0.598,0-1.168,0.051-1.688,0.146
		c-0.52,0.092-0.986,0.23-1.385,0.396c-0.394,0.168-0.717,0.368-0.941,0.589c-0.225,0.223-0.351,0.466-0.358,0.722l-0.424,15.426
		c-0.004,0.262,0.11,0.508,0.326,0.736c0.212,0.226,0.527,0.43,0.916,0.601c0.391,0.17,0.856,0.309,1.375,0.403
		c0.523,0.098,1.094,0.148,1.698,0.148l43.643,0.001c0.605,0,1.18-0.052,1.701-0.149c0.523-0.095,0.994-0.233,1.388-0.403
		c0.395-0.171,0.712-0.375,0.935-0.6c0.221-0.226,0.342-0.476,0.342-0.734l-0.014-15.427
		C658.992,680.238,658.87,679.993,658.652,679.771z M716.306,679.774c-0.226-0.223-0.549-0.423-0.946-0.59
		c-0.396-0.166-0.865-0.303-1.385-0.396c-0.523-0.096-1.091-0.145-1.687-0.145l-43.198-0.002c-0.598,0-1.163,0.051-1.678,0.146
		c-0.516,0.092-0.977,0.228-1.369,0.395c-0.39,0.167-0.705,0.367-0.921,0.588c-0.22,0.225-0.341,0.468-0.337,0.724l0.061,15.427
		c0.004,0.259,0.127,0.509,0.346,0.734c0.221,0.225,0.543,0.429,0.938,0.6c0.393,0.171,0.863,0.31,1.39,0.407
		c0.521,0.094,1.093,0.146,1.693,0.146h43.653c0.604,0,1.177-0.051,1.695-0.146c0.519-0.098,0.985-0.236,1.374-0.406
		s0.701-0.374,0.916-0.6c0.212-0.227,0.327-0.474,0.319-0.735l-0.502-15.427C716.661,680.239,716.529,679.996,716.306,679.774z
		 M773.946,679.774c-0.229-0.222-0.56-0.422-0.963-0.588c-0.399-0.168-0.874-0.305-1.396-0.397
		c-0.523-0.094-1.096-0.146-1.693-0.146h-43.188c-0.597,0-1.164,0.049-1.676,0.145c-0.516,0.094-0.974,0.23-1.358,0.396
		c-0.386,0.167-0.696,0.367-0.906,0.59c-0.212,0.222-0.323,0.465-0.313,0.72l0.55,15.427c0.007,0.262,0.138,0.511,0.367,0.735
		c0.229,0.226,0.556,0.43,0.957,0.6c0.402,0.172,0.877,0.309,1.402,0.406c0.525,0.095,1.101,0.146,1.707,0.146l43.643,0.004
		c0.603,0,1.174-0.053,1.69-0.149c0.516-0.095,0.976-0.232,1.358-0.404c0.388-0.172,0.693-0.376,0.898-0.599
		c0.206-0.228,0.313-0.476,0.295-0.738l-0.984-15.425C774.32,680.239,774.181,679.996,773.946,679.774z M831.599,679.774
		c-0.241-0.219-0.576-0.42-0.983-0.588c-0.404-0.167-0.885-0.303-1.408-0.395c-0.524-0.096-1.101-0.146-1.695-0.146l-43.199-0.002
		c-0.596,0-1.156,0.052-1.669,0.145c-0.511,0.093-0.966,0.229-1.345,0.397c-0.384,0.166-0.686,0.366-0.893,0.588
		c-0.201,0.222-0.309,0.468-0.291,0.723l1.038,15.424c0.016,0.263,0.155,0.511,0.391,0.738c0.236,0.223,0.57,0.427,0.979,0.599
		c0.405,0.172,0.886,0.31,1.412,0.404c0.53,0.097,1.105,0.149,1.709,0.149h43.651c0.601,0,1.171-0.052,1.684-0.149
		c0.513-0.094,0.971-0.232,1.353-0.402c0.375-0.174,0.675-0.376,0.873-0.601c0.2-0.228,0.298-0.476,0.273-0.735l-1.475-15.427
		C831.98,680.242,831.836,679.999,831.599,679.774z M889.237,679.777c-0.245-0.221-0.589-0.421-0.998-0.588
		c-0.41-0.17-0.897-0.303-1.425-0.397c-0.529-0.094-1.104-0.146-1.702-0.146h-43.185c-0.598,0-1.159,0.05-1.668,0.146
		c-0.509,0.095-0.963,0.228-1.334,0.396c-0.373,0.166-0.672,0.367-0.868,0.586c-0.196,0.225-0.294,0.468-0.267,0.723l1.52,15.427
		c0.027,0.26,0.172,0.508,0.415,0.735c0.242,0.225,0.583,0.427,0.993,0.601c0.413,0.17,0.897,0.309,1.429,0.402
		c0.532,0.098,1.111,0.149,1.715,0.149h43.64c0.604,0,1.171-0.052,1.681-0.147c0.512-0.095,0.964-0.232,1.337-0.402
		c0.374-0.173,0.667-0.378,0.859-0.602c0.189-0.226,0.281-0.474,0.248-0.736l-1.961-15.425
		C889.637,680.242,889.485,679.999,889.237,679.777z M946.884,679.781c-0.254-0.223-0.603-0.422-1.021-0.592
		c-0.419-0.165-0.904-0.302-1.434-0.396c-0.533-0.094-1.108-0.143-1.705-0.143l-43.194-0.004c-0.594,0-1.158,0.052-1.663,0.146
		c-0.506,0.095-0.949,0.228-1.321,0.397c-0.367,0.167-0.657,0.367-0.848,0.588c-0.188,0.222-0.279,0.465-0.246,0.724l2.007,15.423
		c0.039,0.263,0.187,0.511,0.44,0.736c0.247,0.225,0.595,0.429,1.011,0.602c0.418,0.17,0.907,0.308,1.442,0.402
		c0.534,0.096,1.115,0.149,1.72,0.149l43.646,0.001c0.6,0,1.167-0.055,1.672-0.15c0.509-0.093,0.956-0.23,1.326-0.402
		c0.368-0.173,0.655-0.375,0.84-0.602c0.187-0.226,0.269-0.474,0.229-0.734l-2.445-15.422
		C947.294,680.244,947.138,680.002,946.884,679.781z M1063.096,679.782c-0.268-0.222-0.627-0.42-1.057-0.589
		c-0.426-0.168-0.921-0.303-1.463-0.397c-0.537-0.091-1.114-0.145-1.709-0.146h-101.26c-0.598,0-1.159,0.049-1.66,0.143
		c-0.502,0.095-0.945,0.231-1.309,0.396c-0.36,0.17-0.646,0.369-0.827,0.592c-0.186,0.221-0.263,0.463-0.226,0.723l2.499,15.422
		c0.041,0.261,0.202,0.509,0.464,0.734c0.254,0.227,0.605,0.431,1.029,0.602c0.419,0.172,0.916,0.31,1.451,0.402
		c0.541,0.096,1.122,0.15,1.726,0.15l102.319,0.001c0.603,0,1.167-0.052,1.667-0.147c0.503-0.096,0.941-0.233,1.298-0.405
		c0.354-0.171,0.631-0.374,0.802-0.6c0.169-0.226,0.236-0.476,0.178-0.735l-3.425-15.423
		C1063.539,680.246,1063.365,680.002,1063.096,679.782z M1073.834,696.663c0.273,0.226,0.639,0.429,1.072,0.6
		c0.432,0.172,0.934,0.31,1.479,0.405c0.536,0.096,1.123,0.15,1.726,0.15h43.644c0.604,0,1.164-0.055,1.661-0.15
		c0.499-0.094,0.935-0.233,1.287-0.402c0.35-0.172,0.618-0.374,0.778-0.6c0.163-0.229,0.225-0.476,0.159-0.735l-3.918-15.424
		c-0.063-0.259-0.247-0.501-0.52-0.725c-0.273-0.222-0.641-0.418-1.073-0.586c-0.435-0.171-0.935-0.303-1.476-0.4
		c-0.539-0.091-1.119-0.145-1.717-0.145h-43.193c-0.593,0-1.149,0.054-1.644,0.145c-0.494,0.095-0.927,0.229-1.278,0.397
		c-0.357,0.169-0.627,0.367-0.796,0.589c-0.166,0.22-0.233,0.466-0.177,0.725l3.479,15.422
		C1073.388,696.188,1073.564,696.438,1073.834,696.663z M330.005,720.356c0.546-0.1,1.05-0.241,1.479-0.415
		c0.43-0.176,0.793-0.382,1.058-0.615c0.263-0.233,0.432-0.486,0.477-0.753l2.744-15.81c0.045-0.261-0.033-0.511-0.214-0.739
		c-0.184-0.229-0.47-0.433-0.839-0.604c-0.364-0.171-0.814-0.312-1.321-0.408c-0.507-0.096-1.072-0.147-1.678-0.147l-43.726-0.002
		c-0.601,0-1.188,0.052-1.732,0.149c-0.541,0.097-1.041,0.235-1.472,0.408c-0.429,0.171-0.789,0.374-1.058,0.604
		c-0.268,0.227-0.44,0.476-0.494,0.738l-3.19,15.811c-0.055,0.264,0.018,0.52,0.193,0.753c0.178,0.229,0.458,0.438,0.821,0.614
		c0.366,0.175,0.816,0.315,1.323,0.414c0.511,0.098,1.079,0.154,1.69,0.154h44.19C328.866,720.509,329.458,720.455,330.005,720.356z
		 M194.86,719.94c0.355,0.172,0.797,0.315,1.302,0.412c0.501,0.1,1.074,0.154,1.683,0.154l69.821,0.002
		c0.612,0,1.204-0.057,1.753-0.154c0.551-0.099,1.057-0.239,1.492-0.414c0.433-0.177,0.801-0.385,1.074-0.614
		c0.271-0.233,0.446-0.489,0.499-0.753l3.256-15.812c0.056-0.262-0.016-0.511-0.189-0.737c-0.175-0.229-0.454-0.433-0.814-0.604
		c-0.359-0.173-0.8-0.312-1.305-0.408c-0.502-0.098-1.069-0.149-1.672-0.149h-69.089c-0.605,0-1.192,0.051-1.74,0.147
		c-0.548,0.096-1.055,0.235-1.49,0.408c-0.441,0.17-0.811,0.375-1.088,0.602c-0.278,0.229-0.462,0.479-0.525,0.741l-3.923,15.809
		c-0.066,0.267-0.005,0.521,0.163,0.756C194.231,719.554,194.503,719.764,194.86,719.94z M388.947,720.356
		c0.542-0.097,1.038-0.238,1.461-0.415c0.422-0.176,0.778-0.382,1.035-0.614c0.255-0.232,0.414-0.487,0.452-0.754l2.245-15.81
		c0.039-0.261-0.049-0.511-0.235-0.738c-0.192-0.227-0.483-0.433-0.854-0.604c-0.368-0.171-0.822-0.31-1.33-0.408
		c-0.51-0.097-1.079-0.147-1.684-0.147l-43.723-0.001c-0.605,0-1.188,0.052-1.728,0.147c-0.542,0.097-1.035,0.237-1.459,0.408
		c-0.426,0.171-0.783,0.375-1.041,0.604c-0.262,0.229-0.425,0.479-0.469,0.739l-2.694,15.81c-0.043,0.267,0.036,0.52,0.218,0.753
		c0.184,0.233,0.474,0.439,0.841,0.615c0.371,0.174,0.824,0.315,1.334,0.415c0.512,0.099,1.085,0.152,1.698,0.153h44.188
		C387.813,720.51,388.403,720.455,388.947,720.356z M447.876,720.358c0.538-0.099,1.031-0.24,1.45-0.417
		c0.42-0.175,0.766-0.382,1.015-0.614c0.249-0.23,0.402-0.484,0.431-0.754l1.746-15.809c0.028-0.261-0.066-0.511-0.261-0.737
		c-0.197-0.229-0.493-0.432-0.869-0.605c-0.376-0.168-0.834-0.309-1.346-0.405c-0.512-0.097-1.083-0.15-1.688-0.15h-43.722
		c-0.604,0-1.185,0.053-1.723,0.147c-0.535,0.1-1.028,0.237-1.446,0.408c-0.419,0.174-0.767,0.377-1.022,0.604
		c-0.251,0.228-0.41,0.478-0.446,0.738l-2.193,15.81c-0.037,0.267,0.05,0.521,0.241,0.754s0.486,0.438,0.86,0.614
		c0.377,0.177,0.833,0.318,1.349,0.415c0.515,0.099,1.09,0.153,1.698,0.153h44.188C446.747,720.51,447.335,720.455,447.876,720.358z
		 M461.237,701.017c-0.534,0.097-1.018,0.237-1.432,0.405c-0.414,0.174-0.754,0.378-1,0.605c-0.246,0.227-0.393,0.478-0.423,0.737
		l-1.696,15.809c-0.03,0.27,0.067,0.523,0.266,0.754c0.197,0.232,0.498,0.439,0.88,0.614c0.379,0.177,0.84,0.318,1.356,0.417
		c0.517,0.097,1.092,0.153,1.701,0.153l44.192,0.001c0.614,0,1.199-0.056,1.736-0.154c0.534-0.098,1.023-0.239,1.436-0.415
		c0.413-0.174,0.753-0.384,0.996-0.613c0.242-0.233,0.386-0.487,0.405-0.755l1.252-15.81c0.019-0.261-0.084-0.509-0.286-0.738
		c-0.204-0.228-0.509-0.431-0.891-0.603c-0.381-0.171-0.843-0.312-1.356-0.408c-0.519-0.097-1.089-0.148-1.695-0.148l-43.728-0.002
		C462.348,700.866,461.768,700.92,461.237,701.017z M519.561,701.017c-0.531,0.097-1.014,0.237-1.42,0.408
		c-0.409,0.172-0.747,0.375-0.985,0.603c-0.237,0.229-0.379,0.478-0.399,0.738l-1.198,15.81c-0.021,0.268,0.083,0.521,0.291,0.755
		c0.205,0.23,0.511,0.439,0.898,0.613c0.386,0.176,0.851,0.317,1.374,0.415c0.519,0.099,1.099,0.154,1.708,0.154h44.185
		c0.61,0,1.192-0.056,1.727-0.153c0.533-0.097,1.017-0.238,1.424-0.416c0.407-0.174,0.74-0.381,0.978-0.613
		c0.232-0.233,0.367-0.486,0.381-0.755l0.751-15.81c0.014-0.261-0.099-0.508-0.309-0.737c-0.209-0.227-0.52-0.43-0.907-0.603
		c-0.387-0.171-0.854-0.311-1.373-0.406c-0.518-0.098-1.089-0.151-1.694-0.151h-43.719
		C520.67,700.868,520.092,700.92,519.561,701.017z M577.881,701.02c-0.527,0.096-1.005,0.235-1.406,0.406
		c-0.404,0.173-0.735,0.377-0.967,0.603c-0.232,0.229-0.366,0.477-0.378,0.737l-0.701,15.81c-0.011,0.269,0.101,0.522,0.316,0.755
		c0.212,0.232,0.527,0.439,0.92,0.613c0.392,0.178,0.862,0.319,1.388,0.416c0.521,0.098,1.101,0.153,1.71,0.153h44.19
		c0.61,0,1.192-0.054,1.723-0.151c0.53-0.099,1.01-0.24,1.413-0.417c0.4-0.174,0.728-0.382,0.956-0.614
		c0.225-0.23,0.353-0.486,0.358-0.752l0.25-15.81c0.007-0.261-0.112-0.511-0.328-0.737c-0.218-0.229-0.533-0.433-0.927-0.605
		c-0.395-0.17-0.862-0.311-1.384-0.406c-0.523-0.097-1.095-0.151-1.702-0.151H579.59
		C578.984,700.868,578.409,700.922,577.881,701.02z M636.203,701.02c-0.523,0.096-0.996,0.236-1.392,0.406
		c-0.4,0.173-0.723,0.377-0.948,0.605c-0.225,0.227-0.349,0.477-0.351,0.737l-0.206,15.81c-0.002,0.266,0.119,0.521,0.338,0.752
		c0.221,0.232,0.541,0.44,0.939,0.614c0.398,0.177,0.873,0.318,1.398,0.417c0.528,0.098,1.108,0.151,1.721,0.151l44.181,0.002
		c0.611,0,1.19-0.056,1.72-0.153c0.527-0.097,1.001-0.239,1.396-0.417c0.398-0.172,0.717-0.382,0.936-0.614
		c0.224-0.23,0.341-0.485,0.336-0.751l-0.246-15.811c-0.004-0.261-0.129-0.509-0.354-0.736c-0.225-0.229-0.548-0.43-0.942-0.604
		c-0.4-0.172-0.874-0.313-1.399-0.408c-0.523-0.097-1.1-0.148-1.705-0.148h-43.716C637.305,700.871,636.728,700.923,636.203,701.02z
		 M694.523,701.02c-0.523,0.096-0.988,0.236-1.386,0.408c-0.39,0.175-0.707,0.375-0.925,0.604c-0.219,0.228-0.339,0.476-0.332,0.736
		l0.297,15.811c0.002,0.266,0.132,0.521,0.361,0.751c0.227,0.233,0.554,0.442,0.96,0.617c0.403,0.175,0.884,0.317,1.411,0.414
		c0.53,0.098,1.114,0.153,1.722,0.153h44.188c0.61,0,1.188-0.054,1.712-0.153c0.527-0.097,0.996-0.239,1.389-0.414
		c0.39-0.175,0.704-0.384,0.915-0.616c0.213-0.231,0.324-0.486,0.313-0.752l-0.745-15.811c-0.012-0.26-0.145-0.509-0.376-0.734
		c-0.234-0.228-0.561-0.432-0.968-0.605c-0.401-0.173-0.881-0.31-1.408-0.406c-0.526-0.097-1.107-0.151-1.708-0.151h-43.727
		C695.617,700.871,695.044,700.926,694.523,701.02z M752.84,701.022c-0.516,0.097-0.98,0.233-1.367,0.406
		c-0.39,0.174-0.697,0.378-0.908,0.605c-0.21,0.226-0.318,0.475-0.308,0.734l0.795,15.811c0.015,0.266,0.152,0.521,0.384,0.752
		c0.235,0.232,0.572,0.441,0.977,0.616c0.41,0.175,0.894,0.317,1.43,0.414c0.533,0.1,1.113,0.153,1.728,0.153h44.176
		c0.612,0,1.188-0.053,1.711-0.151c0.521-0.098,0.984-0.239,1.37-0.415c0.387-0.176,0.694-0.382,0.9-0.614
		c0.204-0.232,0.307-0.487,0.286-0.755l-1.241-15.808c-0.021-0.261-0.164-0.511-0.403-0.737c-0.237-0.228-0.573-0.431-0.983-0.605
		c-0.408-0.17-0.89-0.31-1.421-0.406c-0.531-0.095-1.11-0.151-1.713-0.151h-43.716C753.931,700.871,753.357,700.926,752.84,701.022z
		 M811.154,701.022c-0.514,0.098-0.973,0.236-1.355,0.409c-0.383,0.172-0.687,0.375-0.888,0.603
		c-0.204,0.227-0.309,0.477-0.284,0.737l1.291,15.808c0.02,0.268,0.167,0.522,0.408,0.755c0.242,0.232,0.58,0.438,0.996,0.614
		c0.417,0.176,0.905,0.317,1.442,0.415c0.537,0.099,1.119,0.151,1.728,0.151l44.187,0.001c0.61,0,1.186-0.054,1.704-0.151
		c0.517-0.099,0.975-0.238,1.357-0.416c0.377-0.175,0.676-0.382,0.872-0.614c0.195-0.231,0.294-0.487,0.264-0.752l-1.739-15.811
		c-0.029-0.261-0.179-0.511-0.422-0.736c-0.247-0.227-0.589-0.43-1.001-0.604c-0.413-0.173-0.897-0.312-1.431-0.409
		c-0.536-0.095-1.115-0.149-1.721-0.149h-43.718C812.238,700.873,811.67,700.928,811.154,701.022z M869.469,701.024
		c-0.509,0.096-0.967,0.234-1.341,0.407c-0.376,0.174-0.673,0.377-0.871,0.604c-0.192,0.226-0.286,0.476-0.261,0.736l1.795,15.811
		c0.025,0.265,0.18,0.521,0.429,0.752c0.249,0.232,0.597,0.439,1.016,0.614c0.421,0.178,0.913,0.32,1.452,0.418
		c0.54,0.096,1.13,0.149,1.738,0.149h44.178c0.607,0,1.183-0.052,1.697-0.149c0.518-0.098,0.97-0.24,1.346-0.417
		c0.377-0.175,0.668-0.382,0.858-0.615c0.192-0.231,0.278-0.486,0.238-0.752l-2.235-15.809c-0.036-0.262-0.195-0.51-0.446-0.738
		c-0.255-0.227-0.604-0.43-1.022-0.604c-0.422-0.173-0.913-0.311-1.449-0.406c-0.535-0.095-1.119-0.15-1.721-0.15h-43.713
		C870.551,700.875,869.983,700.93,869.469,701.024z M927.78,701.025c-0.511,0.096-0.962,0.233-1.332,0.406
		c-0.369,0.174-0.662,0.377-0.849,0.604c-0.19,0.229-0.275,0.477-0.236,0.738l2.287,15.809c0.039,0.266,0.196,0.521,0.453,0.752
		c0.26,0.233,0.608,0.44,1.039,0.615c0.425,0.177,0.921,0.319,1.464,0.417c0.541,0.098,1.131,0.151,1.74,0.151h44.183
		c0.611,0,1.181-0.054,1.69-0.151c0.514-0.098,0.96-0.24,1.331-0.415c0.368-0.177,0.655-0.382,0.84-0.614
		c0.182-0.234,0.262-0.486,0.216-0.755l-2.736-15.809c-0.045-0.26-0.213-0.509-0.474-0.735c-0.256-0.226-0.611-0.433-1.037-0.604
		c-0.426-0.173-0.918-0.313-1.457-0.408c-0.538-0.095-1.123-0.149-1.724-0.149l-43.719-0.001
		C928.855,700.875,928.286,700.931,927.78,701.025z M1064.801,701.029c-0.542-0.096-1.129-0.149-1.734-0.149l-74.826-0.004
		c-0.602,0-1.168,0.055-1.676,0.151c-0.507,0.096-0.952,0.234-1.315,0.406c-0.367,0.172-0.652,0.379-0.83,0.604
		c-0.185,0.227-0.264,0.476-0.217,0.737l2.792,15.807c0.046,0.269,0.213,0.521,0.476,0.755c0.269,0.232,0.627,0.438,1.056,0.614
		c0.431,0.175,0.932,0.317,1.48,0.415c0.545,0.098,1.138,0.151,1.746,0.151h75.622c0.607,0,1.179-0.052,1.684-0.15
		c0.51-0.099,0.955-0.24,1.315-0.416c0.36-0.174,0.639-0.382,0.808-0.614c0.174-0.232,0.242-0.486,0.181-0.751l-3.504-15.811
		c-0.056-0.26-0.232-0.51-0.504-0.736c-0.272-0.227-0.637-0.433-1.07-0.604C1065.848,701.262,1065.35,701.124,1064.801,701.029z
		 M292.888,743.195c0.37,0.18,0.825,0.328,1.342,0.429c0.516,0.099,1.093,0.153,1.714,0.153l44.738,0.003
		c0.618,0,1.216-0.058,1.769-0.156c0.55-0.101,1.057-0.248,1.491-0.427c0.436-0.179,0.797-0.395,1.063-0.632
		c0.266-0.236,0.436-0.495,0.479-0.769l2.671-16.204c0.044-0.269-0.039-0.523-0.225-0.758c-0.185-0.233-0.475-0.44-0.847-0.618
		c-0.37-0.176-0.824-0.318-1.336-0.418c-0.517-0.098-1.088-0.152-1.7-0.152l-44.263-0.001c-0.612,0-1.204,0.056-1.755,0.153
		c-0.547,0.1-1.051,0.242-1.484,0.417c-0.436,0.178-0.802,0.386-1.068,0.619c-0.269,0.234-0.44,0.489-0.495,0.758l-3.129,16.202
		c-0.054,0.272,0.022,0.534,0.2,0.771C292.233,742.802,292.52,743.019,292.888,743.195z M189.108,743.195
		c0.361,0.18,0.808,0.328,1.318,0.426c0.511,0.101,1.083,0.156,1.703,0.156h86.035c0.614,0,1.214-0.055,1.77-0.153
		c0.555-0.101,1.065-0.249,1.507-0.429c0.439-0.177,0.811-0.394,1.084-0.63c0.274-0.236,0.45-0.498,0.504-0.771l3.207-16.202
		c0.053-0.269-0.023-0.523-0.201-0.758c-0.178-0.233-0.462-0.441-0.828-0.619c-0.365-0.177-0.814-0.317-1.325-0.417
		c-0.508-0.098-1.079-0.153-1.687-0.153l-85.121-0.002c-0.614,0-1.207,0.057-1.76,0.153c-0.556,0.1-1.067,0.242-1.511,0.416
		c-0.444,0.178-0.821,0.389-1.101,0.62c-0.282,0.234-0.47,0.488-0.538,0.757l-4.018,16.205c-0.066,0.271-0.005,0.534,0.16,0.771
		C188.474,742.802,188.75,743.017,189.108,743.195z M352.543,743.197c0.377,0.179,0.835,0.326,1.354,0.427
		c0.518,0.099,1.098,0.156,1.719,0.156l44.745,0.001c0.615,0,1.21-0.059,1.76-0.157c0.546-0.101,1.051-0.248,1.479-0.426
		c0.429-0.18,0.786-0.393,1.046-0.63c0.255-0.239,0.418-0.498,0.454-0.771l2.158-16.203c0.036-0.269-0.054-0.523-0.249-0.757
		c-0.192-0.231-0.49-0.442-0.868-0.62c-0.378-0.175-0.836-0.318-1.351-0.416c-0.515-0.097-1.09-0.154-1.7-0.154H358.82
		c-0.611,0-1.204,0.058-1.75,0.152c-0.544,0.1-1.043,0.242-1.472,0.418c-0.428,0.178-0.788,0.385-1.05,0.618
		c-0.262,0.234-0.424,0.489-0.468,0.758l-2.619,16.204c-0.046,0.273,0.037,0.532,0.223,0.769
		C351.874,742.803,352.167,743.019,352.543,743.197z M412.205,743.198c0.383,0.181,0.843,0.325,1.367,0.426
		c0.522,0.099,1.105,0.157,1.721,0.157h44.736c0.619,0,1.214-0.059,1.76-0.156c0.545-0.102,1.041-0.246,1.465-0.427
		c0.423-0.179,0.772-0.393,1.021-0.63c0.249-0.238,0.403-0.498,0.43-0.771l1.649-16.202c0.026-0.27-0.071-0.524-0.273-0.758
		c-0.199-0.231-0.501-0.442-0.885-0.618c-0.382-0.177-0.843-0.319-1.363-0.417c-0.519-0.097-1.096-0.152-1.708-0.152l-44.26-0.003
		c-0.613,0-1.199,0.058-1.744,0.154c-0.542,0.098-1.04,0.241-1.46,0.416c-0.427,0.178-0.775,0.389-1.029,0.62
		c-0.255,0.233-0.412,0.488-0.447,0.757l-2.109,16.203c-0.033,0.273,0.055,0.532,0.251,0.771
		C411.524,742.806,411.821,743.019,412.205,743.198z M521.45,743.625c0.542-0.1,1.034-0.246,1.453-0.427
		c0.417-0.179,0.76-0.393,1.002-0.629c0.244-0.238,0.386-0.497,0.404-0.772l1.14-16.202c0.019-0.267-0.089-0.523-0.293-0.757
		c-0.21-0.232-0.517-0.441-0.908-0.619c-0.387-0.177-0.854-0.317-1.377-0.417c-0.521-0.097-1.099-0.152-1.712-0.152h-44.257
		c-0.612,0-1.199,0.056-1.738,0.152c-0.542,0.098-1.032,0.24-1.449,0.417c-0.418,0.176-0.761,0.387-1.011,0.618
		c-0.247,0.233-0.393,0.488-0.421,0.758l-1.6,16.202c-0.026,0.273,0.076,0.533,0.278,0.771c0.204,0.237,0.509,0.451,0.896,0.63
		c0.386,0.181,0.854,0.325,1.38,0.427c0.527,0.098,1.107,0.156,1.727,0.156h44.736C520.314,743.781,520.905,743.726,521.45,743.625z
		 M581.121,743.625c0.539-0.099,1.027-0.246,1.439-0.427c0.409-0.178,0.746-0.393,0.982-0.629c0.234-0.238,0.368-0.497,0.381-0.772
		l0.625-16.202c0.014-0.267-0.102-0.523-0.316-0.757c-0.216-0.23-0.533-0.439-0.926-0.618c-0.393-0.175-0.865-0.316-1.388-0.418
		c-0.526-0.097-1.106-0.151-1.72-0.151l-44.255-0.001c-0.613,0-1.198,0.056-1.735,0.152c-0.538,0.102-1.022,0.243-1.436,0.417
		c-0.411,0.178-0.75,0.387-0.989,0.619c-0.24,0.233-0.382,0.49-0.399,0.757l-1.087,16.202c-0.017,0.275,0.09,0.534,0.297,0.772
		c0.212,0.236,0.527,0.45,0.917,0.629c0.393,0.181,0.864,0.327,1.395,0.427c0.529,0.101,1.115,0.156,1.733,0.156h44.73
		C579.99,743.781,580.58,743.726,581.121,743.625z M640.777,743.627c0.534-0.101,1.02-0.248,1.426-0.429
		c0.406-0.178,0.733-0.393,0.964-0.629c0.229-0.236,0.352-0.497,0.354-0.771l0.119-16.202c0.001-0.268-0.122-0.525-0.343-0.757
		c-0.221-0.232-0.543-0.441-0.944-0.62c-0.399-0.174-0.873-0.316-1.402-0.416c-0.528-0.097-1.11-0.151-1.723-0.151h-44.256
		c-0.612,0-1.196,0.053-1.728,0.149c-0.535,0.102-1.017,0.243-1.422,0.418c-0.406,0.179-0.738,0.388-0.972,0.618
		c-0.23,0.233-0.361,0.49-0.373,0.757l-0.58,16.202c-0.007,0.275,0.107,0.534,0.326,0.772c0.218,0.236,0.536,0.451,0.935,0.629
		c0.398,0.181,0.875,0.328,1.406,0.429c0.533,0.099,1.12,0.154,1.737,0.154h44.733C639.653,743.781,640.242,743.728,640.777,743.627
		z M700.444,743.627c0.535-0.101,1.012-0.247,1.411-0.426c0.399-0.181,0.724-0.395,0.941-0.632c0.222-0.236,0.339-0.496,0.334-0.77
		l-0.391-16.201c-0.01-0.27-0.143-0.527-0.368-0.759c-0.229-0.231-0.56-0.441-0.964-0.617c-0.404-0.177-0.886-0.319-1.415-0.417
		c-0.533-0.099-1.118-0.153-1.73-0.153h-44.262c-0.608,0-1.19,0.055-1.722,0.153c-0.529,0.098-1.006,0.24-1.408,0.414
		c-0.401,0.179-0.728,0.388-0.953,0.62c-0.228,0.231-0.351,0.489-0.353,0.757l-0.066,16.202c-0.001,0.273,0.123,0.534,0.35,0.771
		c0.225,0.236,0.554,0.451,0.958,0.629c0.404,0.182,0.887,0.328,1.419,0.429c0.534,0.101,1.124,0.154,1.737,0.154l44.74,0.002
		C699.322,743.783,699.911,743.728,700.444,743.627z M760.1,743.627c0.531-0.101,1.004-0.247,1.397-0.425
		c0.392-0.182,0.711-0.394,0.923-0.632c0.215-0.237,0.324-0.497,0.308-0.771l-0.903-16.201c-0.015-0.269-0.15-0.524-0.39-0.756
		c-0.233-0.234-0.572-0.444-0.981-0.619c-0.412-0.176-0.896-0.319-1.431-0.418c-0.535-0.099-1.121-0.152-1.731-0.152h-44.252
		c-0.613,0-1.197,0.054-1.721,0.152c-0.527,0.098-1,0.24-1.397,0.417c-0.396,0.176-0.712,0.386-0.931,0.617
		c-0.215,0.231-0.333,0.489-0.325,0.759l0.443,16.201c0.007,0.273,0.138,0.533,0.372,0.77c0.231,0.237,0.565,0.451,0.976,0.632
		c0.409,0.179,0.895,0.325,1.432,0.426c0.541,0.101,1.134,0.156,1.748,0.156l44.729,0.001
		C758.983,743.784,759.569,743.728,760.1,743.627z M819.759,743.627c0.526-0.101,0.995-0.246,1.385-0.425
		c0.39-0.182,0.701-0.394,0.905-0.632c0.207-0.237,0.308-0.497,0.284-0.771l-1.415-16.201c-0.021-0.269-0.168-0.524-0.411-0.754
		c-0.247-0.234-0.591-0.445-1.005-0.621c-0.418-0.176-0.906-0.317-1.445-0.418c-0.537-0.099-1.123-0.152-1.733-0.152h-44.262
		c-0.608,0-1.186,0.054-1.708,0.152c-0.522,0.101-0.99,0.242-1.378,0.418c-0.393,0.175-0.703,0.385-0.914,0.619
		c-0.208,0.231-0.316,0.487-0.302,0.756l0.954,16.201c0.017,0.273,0.157,0.533,0.397,0.771c0.24,0.238,0.579,0.45,0.996,0.632
		c0.412,0.179,0.902,0.324,1.442,0.425c0.539,0.102,1.13,0.157,1.746,0.157h44.737C818.648,743.784,819.232,743.729,819.759,743.627
		z M879.41,743.627c0.526-0.098,0.992-0.246,1.374-0.423c0.382-0.181,0.686-0.395,0.885-0.634c0.197-0.236,0.291-0.496,0.258-0.771
		l-1.924-16.199c-0.033-0.268-0.187-0.524-0.436-0.756c-0.252-0.234-0.602-0.443-1.022-0.619c-0.422-0.177-0.919-0.319-1.458-0.42
		c-0.543-0.098-1.13-0.149-1.74-0.149h-44.251c-0.61,0-1.189,0.051-1.711,0.149c-0.521,0.101-0.983,0.242-1.367,0.418
		c-0.385,0.176-0.69,0.387-0.891,0.621c-0.204,0.231-0.305,0.485-0.279,0.754l1.463,16.201c0.026,0.273,0.175,0.533,0.417,0.771
		c0.252,0.239,0.596,0.45,1.02,0.632c0.42,0.179,0.914,0.324,1.461,0.425c0.544,0.102,1.138,0.157,1.756,0.157h44.723
		C878.308,743.784,878.891,743.729,879.41,743.627z M939.072,743.627c0.519-0.097,0.981-0.244,1.357-0.423
		c0.379-0.181,0.674-0.395,0.863-0.634c0.19-0.236,0.277-0.496,0.235-0.771l-2.435-16.198c-0.039-0.267-0.203-0.525-0.461-0.757
		c-0.257-0.232-0.615-0.443-1.04-0.619c-0.426-0.177-0.925-0.319-1.473-0.418c-0.542-0.1-1.133-0.15-1.745-0.15l-44.254-0.001
		c-0.616,0-1.191,0.052-1.709,0.151c-0.52,0.099-0.977,0.241-1.354,0.418c-0.38,0.176-0.677,0.385-0.874,0.619
		c-0.195,0.231-0.288,0.488-0.256,0.756l1.977,16.199c0.033,0.274,0.188,0.534,0.443,0.771c0.256,0.239,0.61,0.453,1.034,0.634
		c0.428,0.177,0.93,0.326,1.474,0.423c0.549,0.102,1.146,0.157,1.766,0.157h44.734C937.974,743.784,938.553,743.729,939.072,743.627
		z M1074.663,743.631c0.514-0.101,0.966-0.248,1.329-0.427c0.364-0.181,0.645-0.394,0.818-0.632
		c0.174-0.235,0.239-0.496,0.179-0.769l-3.596-16.202c-0.058-0.266-0.238-0.523-0.513-0.754c-0.276-0.234-0.644-0.445-1.086-0.618
		c-0.44-0.177-0.949-0.321-1.498-0.421c-0.552-0.098-1.145-0.149-1.758-0.149l-118.915-0.002c-0.614,0-1.186,0.051-1.7,0.15
		c-0.516,0.099-0.969,0.241-1.342,0.418c-0.372,0.176-0.666,0.387-0.854,0.619c-0.188,0.231-0.273,0.49-0.23,0.757l2.487,16.198
		c0.043,0.274,0.209,0.537,0.471,0.771c0.263,0.239,0.622,0.453,1.054,0.634c0.435,0.179,0.937,0.326,1.485,0.426
		c0.553,0.1,1.15,0.154,1.77,0.154l120.19,0.002C1073.575,743.786,1074.15,743.732,1074.663,743.631z M379.621,747.69
		c-0.19-0.239-0.487-0.454-0.867-0.635c-0.38-0.18-0.84-0.325-1.362-0.427c-0.521-0.101-1.105-0.154-1.723-0.154h-44.8
		c-0.621,0-1.219,0.054-1.773,0.154c-0.553,0.102-1.061,0.247-1.497,0.427c-0.437,0.181-0.804,0.395-1.07,0.635
		c-0.27,0.238-0.44,0.499-0.488,0.775l-2.898,16.597c-0.047,0.283,0.031,0.55,0.221,0.793c0.186,0.246,0.476,0.462,0.857,0.648
		c0.375,0.184,0.838,0.333,1.361,0.435c0.525,0.104,1.112,0.159,1.737,0.159l45.289,0.002c0.625,0,1.232-0.058,1.788-0.161
		c0.557-0.102,1.068-0.251,1.506-0.435c0.435-0.187,0.796-0.402,1.062-0.646c0.266-0.245,0.432-0.512,0.471-0.795l2.426-16.597
		C379.9,748.192,379.812,747.929,379.621,747.69z M315.405,765.063l2.963-16.597c0.048-0.276-0.028-0.537-0.215-0.775
		c-0.184-0.24-0.471-0.454-0.843-0.635c-0.377-0.18-0.833-0.325-1.352-0.429c-0.517-0.099-1.097-0.153-1.715-0.153l-122.775-0.003
		c-0.619,0-1.224,0.058-1.785,0.156c-0.56,0.102-1.076,0.246-1.529,0.427c-0.45,0.18-0.832,0.396-1.117,0.634
		c-0.286,0.24-0.476,0.502-0.544,0.777l-4.117,16.598c-0.069,0.283-0.009,0.549,0.161,0.793c0.167,0.242,0.446,0.462,0.809,0.647
		c0.365,0.185,0.813,0.331,1.332,0.436c0.516,0.104,1.098,0.159,1.725,0.159h124.11c0.626,0,1.231-0.056,1.792-0.159
		c0.561-0.102,1.076-0.251,1.519-0.435c0.443-0.187,0.813-0.405,1.084-0.648C315.181,765.612,315.356,765.346,315.405,765.063z
		 M438.526,747.056c-0.384-0.18-0.851-0.325-1.376-0.425c-0.525-0.103-1.107-0.156-1.725-0.156h-44.799
		c-0.62,0-1.218,0.054-1.77,0.156c-0.549,0.1-1.055,0.245-1.484,0.425c-0.431,0.181-0.789,0.396-1.049,0.635
		c-0.262,0.238-0.425,0.502-0.464,0.775l-2.372,16.597c-0.041,0.283,0.047,0.55,0.241,0.795c0.195,0.244,0.496,0.46,0.878,0.646
		c0.381,0.184,0.848,0.334,1.376,0.435c0.529,0.104,1.117,0.161,1.741,0.161h45.287c0.627,0,1.231-0.058,1.784-0.16
		c0.555-0.102,1.06-0.252,1.49-0.436c0.431-0.187,0.785-0.402,1.044-0.646c0.257-0.245,0.414-0.512,0.446-0.792l1.901-16.6
		c0.033-0.272-0.064-0.537-0.262-0.775C439.215,747.452,438.91,747.236,438.526,747.056z M370.452,770.993
		c-0.383-0.184-0.851-0.334-1.377-0.438c-0.525-0.102-1.114-0.159-1.739-0.163h-45.375c-0.625,0-1.232,0.062-1.792,0.163
		c-0.56,0.104-1.075,0.254-1.519,0.438c-0.445,0.186-0.815,0.406-1.088,0.651c-0.276,0.242-0.45,0.512-0.5,0.794l-3.014,17.026
		c-0.05,0.288,0.029,0.563,0.218,0.812c0.189,0.251,0.486,0.477,0.868,0.664c0.383,0.188,0.852,0.341,1.378,0.447
		c0.532,0.105,1.126,0.164,1.756,0.164h45.875c0.632,0,1.242-0.059,1.808-0.164c0.565-0.106,1.081-0.26,1.525-0.447
		c0.443-0.188,0.813-0.413,1.082-0.664c0.272-0.248,0.437-0.523,0.484-0.812l2.529-17.026c0.041-0.282-0.045-0.552-0.243-0.794
		C371.136,771.399,370.834,771.182,370.452,770.993z M307.032,770.993c-0.375-0.184-0.836-0.334-1.361-0.438
		c-0.522-0.104-1.112-0.163-1.738-0.163h-45.368c-0.626,0-1.235,0.06-1.8,0.163c-0.564,0.104-1.085,0.254-1.532,0.438
		c-0.451,0.186-0.829,0.406-1.11,0.651c-0.282,0.242-0.464,0.512-0.526,0.794l-3.573,17.028c-0.062,0.286,0.01,0.562,0.189,0.812
		c0.18,0.249,0.468,0.475,0.844,0.662c0.375,0.188,0.838,0.341,1.363,0.447c0.529,0.105,1.119,0.164,1.754,0.164h45.867
		c0.633,0,1.248-0.059,1.815-0.164c0.569-0.106,1.093-0.26,1.54-0.447c0.45-0.188,0.825-0.413,1.103-0.664
		c0.278-0.248,0.457-0.523,0.508-0.812l3.094-17.026c0.048-0.282-0.026-0.552-0.212-0.794
		C307.703,771.399,307.409,771.179,307.032,770.993z M433.38,770.996c-0.388-0.187-0.863-0.337-1.391-0.44
		c-0.531-0.102-1.122-0.159-1.748-0.159h-45.374c-0.625,0-1.23,0.058-1.787,0.159c-0.558,0.104-1.069,0.254-1.506,0.438
		c-0.439,0.188-0.803,0.406-1.069,0.651c-0.264,0.242-0.431,0.512-0.472,0.794l-2.455,17.026c-0.04,0.288,0.045,0.563,0.244,0.812
		c0.196,0.251,0.5,0.477,0.887,0.664c0.387,0.188,0.861,0.341,1.396,0.447c0.535,0.105,1.128,0.164,1.759,0.164h45.875
		c0.636,0,1.244-0.059,1.806-0.164c0.561-0.106,1.073-0.26,1.51-0.447c0.436-0.188,0.799-0.415,1.058-0.664
		c0.262-0.248,0.421-0.523,0.455-0.812l1.973-17.026c0.031-0.281-0.063-0.552-0.265-0.794
		C434.076,771.399,433.768,771.182,433.38,770.996z M445,766.504c0.388,0.184,0.858,0.334,1.388,0.436
		c0.53,0.103,1.117,0.16,1.74,0.16l45.296,0.001c0.624,0,1.227-0.059,1.775-0.161c0.552-0.102,1.053-0.252,1.479-0.436
		c0.423-0.187,0.772-0.402,1.022-0.646c0.248-0.245,0.399-0.512,0.419-0.792l1.38-16.598c0.025-0.274-0.081-0.537-0.287-0.777
		c-0.207-0.238-0.516-0.454-0.907-0.635c-0.391-0.179-0.86-0.324-1.39-0.425c-0.525-0.1-1.11-0.156-1.73-0.156h-44.807
		c-0.617,0-1.211,0.054-1.758,0.156c-0.545,0.1-1.042,0.245-1.468,0.425c-0.423,0.181-0.774,0.396-1.029,0.635
		c-0.251,0.238-0.408,0.503-0.437,0.775l-1.85,16.6c-0.032,0.28,0.064,0.547,0.266,0.792
		C444.305,766.102,444.609,766.317,445,766.504z M505.385,766.504c0.393,0.184,0.872,0.334,1.404,0.436
		c0.534,0.103,1.125,0.161,1.751,0.161h45.282c0.627,0,1.228-0.059,1.773-0.161c0.549-0.102,1.044-0.252,1.465-0.436
		c0.418-0.187,0.761-0.402,1.003-0.646c0.24-0.243,0.382-0.511,0.393-0.791l0.858-16.599c0.013-0.274-0.098-0.537-0.309-0.777
		c-0.219-0.238-0.534-0.453-0.931-0.633c-0.397-0.181-0.868-0.326-1.399-0.427c-0.532-0.1-1.12-0.156-1.738-0.156H510.14
		c-0.622,0-1.213,0.057-1.756,0.156c-0.544,0.101-1.037,0.246-1.458,0.425c-0.42,0.181-0.765,0.396-1.009,0.635
		c-0.247,0.24-0.394,0.503-0.415,0.777l-1.327,16.598c-0.021,0.28,0.081,0.547,0.291,0.792
		C504.675,766.102,504.989,766.317,505.385,766.504z M565.77,766.504c0.402,0.184,0.883,0.334,1.418,0.436
		c0.538,0.103,1.127,0.161,1.755,0.161h45.289c0.625,0,1.222-0.059,1.764-0.161c0.542-0.102,1.035-0.252,1.449-0.436
		c0.416-0.184,0.748-0.402,0.986-0.646c0.233-0.243,0.367-0.511,0.372-0.791l0.333-16.599c0.006-0.274-0.114-0.537-0.337-0.776
		c-0.222-0.239-0.548-0.452-0.951-0.634c-0.398-0.181-0.881-0.325-1.415-0.425c-0.534-0.102-1.12-0.158-1.737-0.158h-44.803
		c-0.617,0-1.209,0.057-1.748,0.156c-0.543,0.101-1.032,0.246-1.447,0.427c-0.415,0.18-0.753,0.395-0.992,0.633
		c-0.239,0.24-0.381,0.503-0.392,0.777l-0.804,16.599c-0.014,0.28,0.101,0.548,0.32,0.791
		C565.048,766.102,565.368,766.317,565.77,766.504z M626.155,766.504c0.407,0.184,0.892,0.334,1.434,0.436
		c0.538,0.103,1.135,0.161,1.762,0.161h45.281c0.623,0,1.22-0.059,1.759-0.161c0.542-0.102,1.027-0.251,1.434-0.436
		c0.41-0.184,0.736-0.402,0.965-0.646c0.226-0.243,0.349-0.511,0.346-0.791l-0.188-16.598c-0.004-0.275-0.135-0.538-0.359-0.776
		c-0.232-0.24-0.563-0.453-0.971-0.635c-0.408-0.179-0.891-0.325-1.428-0.425c-0.535-0.102-1.128-0.158-1.748-0.158h-44.792
		c-0.621,0-1.21,0.057-1.749,0.158c-0.537,0.1-1.022,0.244-1.432,0.425c-0.408,0.182-0.738,0.395-0.968,0.634
		c-0.232,0.239-0.36,0.502-0.366,0.776l-0.28,16.599c-0.004,0.28,0.12,0.548,0.345,0.791
		C625.421,766.102,625.749,766.32,626.155,766.504z M685.554,765.857c0.235,0.244,0.571,0.463,0.981,0.646
		c0.414,0.185,0.905,0.334,1.45,0.436c0.542,0.103,1.136,0.161,1.761,0.161h45.29c0.624,0,1.218-0.059,1.756-0.161
		c0.538-0.102,1.019-0.251,1.421-0.436c0.401-0.184,0.723-0.402,0.941-0.646c0.219-0.243,0.334-0.511,0.319-0.791l-0.712-16.595
		c-0.011-0.276-0.147-0.541-0.385-0.779c-0.236-0.24-0.573-0.453-0.985-0.633c-0.41-0.18-0.9-0.327-1.443-0.427
		c-0.54-0.102-1.133-0.155-1.748-0.155l-44.805-0.003c-0.618,0-1.205,0.057-1.74,0.158c-0.533,0.1-1.013,0.246-1.415,0.427
		c-0.405,0.18-0.729,0.393-0.955,0.633c-0.224,0.238-0.345,0.501-0.34,0.776l0.242,16.598
		C685.19,765.347,685.322,765.614,685.554,765.857z M745.919,765.857c0.24,0.244,0.582,0.463,1,0.646
		c0.418,0.185,0.912,0.334,1.459,0.436c0.547,0.103,1.145,0.161,1.772,0.161h45.277c0.626,0,1.22-0.059,1.753-0.161
		c0.534-0.102,1.011-0.251,1.407-0.436c0.395-0.184,0.712-0.402,0.923-0.646c0.208-0.243,0.316-0.511,0.295-0.791l-1.236-16.595
		c-0.019-0.276-0.163-0.54-0.411-0.779c-0.243-0.237-0.587-0.453-1.005-0.633c-0.419-0.18-0.912-0.327-1.457-0.426
		c-0.543-0.102-1.135-0.156-1.754-0.156h-44.791c-0.62,0-1.208,0.054-1.738,0.155c-0.533,0.1-1.008,0.247-1.403,0.427
		c-0.396,0.18-0.716,0.393-0.934,0.633c-0.213,0.238-0.326,0.503-0.315,0.779l0.767,16.595
		C745.541,765.347,745.679,765.614,745.919,765.857z M806.273,765.857c0.248,0.244,0.596,0.463,1.02,0.646
		c0.422,0.185,0.921,0.334,1.476,0.436c0.549,0.103,1.149,0.161,1.774,0.161h45.286c0.624,0,1.211-0.059,1.745-0.161
		c0.527-0.102,0.999-0.251,1.39-0.436c0.392-0.184,0.701-0.402,0.907-0.646c0.202-0.243,0.302-0.511,0.272-0.791l-1.759-16.595
		c-0.03-0.276-0.183-0.54-0.436-0.779c-0.252-0.236-0.604-0.453-1.029-0.633c-0.425-0.18-0.925-0.325-1.473-0.426
		c-0.545-0.099-1.138-0.156-1.753-0.156h-44.8c-0.62,0-1.207,0.055-1.734,0.156c-0.528,0.099-1,0.246-1.39,0.426
		s-0.702,0.396-0.911,0.633c-0.206,0.239-0.314,0.503-0.293,0.779l1.288,16.595C805.877,765.347,806.025,765.614,806.273,765.857z
		 M866.633,765.857c0.258,0.244,0.611,0.463,1.04,0.646c0.429,0.185,0.938,0.334,1.488,0.436c0.554,0.103,1.156,0.161,1.783,0.161
		h45.276c0.626,0,1.211-0.059,1.739-0.161c0.53-0.102,0.994-0.251,1.381-0.436c0.384-0.183,0.684-0.402,0.879-0.646
		c0.197-0.243,0.288-0.51,0.251-0.791l-2.283-16.595c-0.04-0.276-0.199-0.538-0.46-0.776c-0.259-0.239-0.615-0.455-1.047-0.636
		c-0.43-0.18-0.932-0.325-1.48-0.426c-0.552-0.099-1.148-0.156-1.766-0.156h-44.789c-0.62,0-1.203,0.058-1.729,0.156
		c-0.523,0.101-0.99,0.246-1.375,0.426c-0.387,0.18-0.69,0.396-0.894,0.633c-0.198,0.239-0.295,0.503-0.266,0.779l1.812,16.595
		C866.223,765.347,866.378,765.614,866.633,765.857z M927.475,765.857c0.263,0.244,0.626,0.464,1.063,0.646
		c0.435,0.185,0.941,0.334,1.5,0.436c0.557,0.103,1.159,0.161,1.781,0.161h83.482c0.622,0,1.208-0.057,1.729-0.161
		c0.526-0.102,0.985-0.249,1.359-0.434s0.664-0.404,0.846-0.648c0.185-0.243,0.261-0.51,0.206-0.791l-3.137-16.595
		c-0.053-0.276-0.228-0.538-0.5-0.776c-0.271-0.239-0.64-0.452-1.076-0.634c-0.442-0.182-0.954-0.326-1.508-0.425
		c-0.553-0.101-1.152-0.159-1.771-0.159h-82.584c-0.614,0-1.195,0.058-1.717,0.156c-0.521,0.101-0.984,0.246-1.363,0.426
		c-0.383,0.181-0.68,0.396-0.875,0.636c-0.193,0.238-0.28,0.5-0.244,0.776l2.342,16.595
		C927.043,765.348,927.21,765.614,927.475,765.857z M1122.813,700.88h-43.704c-0.604,0-1.169,0.054-1.669,0.149
		c-0.5,0.095-0.945,0.232-1.298,0.406c-0.358,0.174-0.631,0.377-0.8,0.604c-0.172,0.227-0.236,0.477-0.178,0.737l3.563,15.81
		c0.062,0.265,0.244,0.519,0.52,0.751c0.271,0.232,0.642,0.44,1.082,0.614c0.441,0.176,0.947,0.317,1.499,0.416
		s1.146,0.152,1.757,0.152h44.169c0.61,0,1.181-0.053,1.685-0.149c0.504-0.099,0.94-0.243,1.296-0.417
		c0.359-0.176,0.628-0.383,0.791-0.616c0.165-0.231,0.226-0.483,0.156-0.751l-4.013-15.808c-0.067-0.261-0.25-0.511-0.533-0.737
		c-0.276-0.228-0.647-0.432-1.09-0.605c-0.438-0.172-0.943-0.31-1.491-0.406C1124.005,700.934,1123.416,700.88,1122.813,700.88z
		 M1129.8,723.811c-0.552-0.098-1.148-0.15-1.761-0.15l-44.244-0.001c-0.613,0-1.183,0.054-1.688,0.149
		c-0.508,0.1-0.954,0.244-1.314,0.421c-0.357,0.173-0.638,0.384-0.809,0.618c-0.17,0.23-0.238,0.488-0.177,0.754l3.649,16.202
		c0.062,0.272,0.244,0.533,0.523,0.769c0.281,0.238,0.655,0.451,1.101,0.632c0.445,0.179,0.96,0.326,1.52,0.427
		c0.557,0.102,1.159,0.155,1.778,0.155l44.719,0.002c0.618,0,1.191-0.056,1.7-0.157c0.513-0.101,0.956-0.246,1.318-0.426
		c0.355-0.181,0.631-0.395,0.795-0.633c0.169-0.234,0.226-0.494,0.154-0.769l-4.107-16.2c-0.066-0.267-0.254-0.522-0.54-0.756
		c-0.284-0.232-0.657-0.443-1.104-0.618C1130.868,724.053,1130.357,723.91,1129.8,723.811z M1094.172,767.101h45.281
		c0.621,0,1.199-0.057,1.716-0.159c0.516-0.104,0.963-0.251,1.324-0.436c0.366-0.185,0.642-0.404,0.807-0.648
		c0.167-0.241,0.223-0.51,0.155-0.791l-4.216-16.593c-0.068-0.277-0.259-0.54-0.548-0.777c-0.284-0.238-0.669-0.453-1.12-0.634
		c-0.448-0.179-0.964-0.327-1.527-0.425c-0.56-0.102-1.161-0.157-1.78-0.157l-44.792-0.003c-0.618,0-1.195,0.059-1.713,0.16
		c-0.512,0.098-0.959,0.244-1.323,0.425s-0.643,0.396-0.816,0.634c-0.174,0.237-0.237,0.499-0.178,0.776l3.741,16.594
		c0.067,0.281,0.252,0.55,0.536,0.791c0.283,0.244,0.665,0.464,1.112,0.648c0.454,0.185,0.975,0.332,1.542,0.436
		C1092.939,767.044,1093.547,767.101,1094.172,767.101z M1149.647,789.464l-4.32-17.021c-0.072-0.284-0.268-0.552-0.558-0.797
		c-0.292-0.245-0.681-0.464-1.139-0.648c-0.455-0.186-0.98-0.336-1.551-0.439c-0.564-0.103-1.175-0.161-1.801-0.161h-45.356
		c-0.628,0-1.212,0.059-1.731,0.161c-0.518,0.104-0.973,0.254-1.34,0.438c-0.37,0.186-0.65,0.404-0.827,0.649
		c-0.174,0.245-0.24,0.513-0.178,0.794l3.841,17.024c0.063,0.289,0.255,0.563,0.541,0.813c0.29,0.248,0.675,0.473,1.132,0.664
		c0.458,0.187,0.987,0.34,1.56,0.445c0.572,0.104,1.189,0.162,1.821,0.162h45.862c0.629,0,1.215-0.058,1.738-0.164
		c0.519-0.104,0.976-0.257,1.338-0.446c0.366-0.188,0.647-0.413,0.813-0.661C1149.662,790.026,1149.72,789.753,1149.647,789.464z
		 M1030.307,766.941c0.559,0.103,1.168,0.159,1.794,0.159h45.28c0.624,0,1.206-0.057,1.725-0.159
		c0.516-0.104,0.97-0.251,1.338-0.436c0.366-0.185,0.651-0.404,0.825-0.648c0.177-0.243,0.243-0.51,0.182-0.791l-3.676-16.594
		c-0.064-0.277-0.244-0.539-0.523-0.776c-0.28-0.238-0.655-0.453-1.103-0.634c-0.441-0.181-0.957-0.327-1.513-0.426
		c-0.558-0.101-1.157-0.159-1.773-0.159h-44.794c-0.62,0-1.199,0.059-1.715,0.159c-0.518,0.099-0.971,0.243-1.341,0.425
		c-0.369,0.182-0.656,0.396-0.836,0.634c-0.183,0.238-0.259,0.5-0.204,0.776l3.206,16.595c0.055,0.281,0.232,0.548,0.509,0.791
		c0.275,0.244,0.649,0.464,1.094,0.648C1029.229,766.69,1029.744,766.838,1030.307,766.941z M1082.554,771.646
		c-0.29-0.245-0.667-0.464-1.117-0.649c-0.449-0.185-0.973-0.335-1.534-0.438c-0.565-0.103-1.176-0.161-1.799-0.161h-45.361
		c-0.624,0-1.209,0.059-1.735,0.161c-0.521,0.104-0.981,0.254-1.354,0.438c-0.377,0.186-0.665,0.404-0.847,0.649
		c-0.183,0.245-0.256,0.513-0.203,0.794l3.286,17.025c0.058,0.288,0.237,0.562,0.52,0.812c0.278,0.249,0.66,0.473,1.11,0.664
		c0.453,0.188,0.973,0.34,1.543,0.445c0.566,0.104,1.182,0.165,1.816,0.165l45.861-0.003c0.631,0,1.217-0.058,1.743-0.162
		c0.525-0.105,0.985-0.259,1.355-0.445c0.372-0.191,0.656-0.415,0.834-0.664c0.178-0.25,0.245-0.523,0.182-0.813l-3.772-17.024
		C1083.022,772.158,1082.834,771.891,1082.554,771.646z M1020.33,771.646c-0.275-0.245-0.647-0.464-1.095-0.649
		c-0.445-0.185-0.963-0.337-1.524-0.438c-0.563-0.103-1.17-0.161-1.794-0.161h-45.355c-0.622,0-1.211,0.059-1.741,0.161
		c-0.524,0.102-0.987,0.254-1.369,0.438c-0.379,0.186-0.677,0.404-0.866,0.649s-0.274,0.513-0.229,0.794l2.739,17.025
		c0.046,0.288,0.217,0.562,0.486,0.812c0.275,0.249,0.649,0.473,1.09,0.664c0.445,0.188,0.965,0.34,1.531,0.445
		c0.565,0.104,1.181,0.165,1.811,0.165h45.852c0.634,0,1.228-0.061,1.756-0.165c0.53-0.105,0.995-0.258,1.373-0.445
		c0.38-0.191,0.675-0.415,0.858-0.664c0.184-0.25,0.261-0.523,0.204-0.812l-3.218-17.025
		C1020.784,772.158,1020.606,771.891,1020.33,771.646z M882.719,771.646c-0.255-0.245-0.614-0.464-1.047-0.649
		c-0.431-0.187-0.937-0.337-1.489-0.438c-0.552-0.104-1.157-0.161-1.78-0.161h-45.364c-0.626,0-1.22,0.058-1.752,0.161
		c-0.536,0.102-1.009,0.252-1.403,0.438c-0.395,0.186-0.706,0.404-0.913,0.648c-0.209,0.246-0.311,0.513-0.284,0.795l1.514,17.025
		c0.028,0.288,0.182,0.562,0.435,0.812c0.257,0.249,0.611,0.476,1.04,0.664c0.436,0.188,0.941,0.34,1.499,0.445
		c0.558,0.104,1.167,0.165,1.802,0.165h45.862c0.631,0,1.228-0.061,1.763-0.165c0.536-0.105,1.01-0.258,1.404-0.445
		c0.39-0.188,0.699-0.415,0.902-0.664c0.203-0.25,0.299-0.523,0.263-0.812l-2.001-17.025
		C883.136,772.158,882.979,771.891,882.719,771.646z M820.493,771.645c-0.25-0.244-0.599-0.463-1.026-0.648
		c-0.428-0.187-0.929-0.337-1.481-0.438c-0.553-0.104-1.152-0.161-1.778-0.161h-45.354c-0.628,0-1.222,0.058-1.759,0.161
		c-0.536,0.102-1.018,0.252-1.416,0.438c-0.401,0.186-0.72,0.404-0.936,0.648c-0.217,0.246-0.329,0.513-0.31,0.795l0.966,17.025
		c0.016,0.288,0.156,0.562,0.404,0.812c0.248,0.249,0.594,0.476,1.021,0.664c0.426,0.188,0.929,0.34,1.481,0.445
		c0.556,0.104,1.162,0.166,1.796,0.166l45.857-0.001c0.634,0,1.23-0.061,1.772-0.165c0.539-0.105,1.021-0.258,1.42-0.445
		c0.4-0.188,0.713-0.415,0.925-0.664c0.213-0.25,0.316-0.523,0.29-0.812l-1.447-17.025
		C820.895,772.157,820.743,771.891,820.493,771.645z M757.073,771.645c-0.244-0.244-0.587-0.463-1.008-0.648
		c-0.421-0.187-0.916-0.337-1.464-0.438c-0.547-0.104-1.147-0.161-1.775-0.161H447.921c-0.627,0-1.229,0.058-1.784,0.159
		c-0.552,0.104-1.059,0.254-1.491,0.44c-0.433,0.186-0.788,0.403-1.046,0.648c-0.256,0.242-0.415,0.513-0.447,0.794l-1.894,17.026
		c-0.033,0.288,0.066,0.563,0.27,0.812c0.206,0.249,0.516,0.477,0.913,0.664c0.394,0.188,0.871,0.341,1.406,0.447
		c0.538,0.105,1.134,0.164,1.766,0.164h308.265c0.634,0,1.234-0.062,1.778-0.166c0.543-0.105,1.029-0.258,1.434-0.445
		c0.406-0.188,0.731-0.415,0.947-0.664c0.222-0.25,0.334-0.523,0.318-0.812l-0.887-17.025
		C757.455,772.157,757.314,771.891,757.073,771.645z M243.973,770.993c-0.373-0.184-0.826-0.334-1.347-0.438
		c-0.521-0.104-1.106-0.163-1.734-0.163h-56.134c-0.627,0-1.238,0.06-1.809,0.163c-0.566,0.104-1.094,0.254-1.549,0.438
		c-0.456,0.186-0.846,0.405-1.133,0.651c-0.292,0.242-0.486,0.512-0.556,0.794l-4.23,17.028c-0.069,0.286-0.011,0.562,0.163,0.812
		c0.168,0.249,0.447,0.475,0.814,0.662c0.37,0.188,0.825,0.341,1.348,0.447c0.521,0.105,1.113,0.164,1.746,0.164h56.754
		c0.635,0,1.252-0.059,1.824-0.164c0.571-0.106,1.097-0.26,1.554-0.447c0.456-0.188,0.838-0.413,1.123-0.662
		c0.286-0.25,0.474-0.525,0.534-0.812l3.653-17.028c0.062-0.282-0.008-0.552-0.186-0.794
		C244.629,771.399,244.345,771.179,243.973,770.993z M956.917,771.646c-0.267-0.245-0.636-0.464-1.075-0.649
		c-0.438-0.185-0.951-0.337-1.51-0.438c-0.557-0.104-1.165-0.161-1.792-0.161h-56.117c-0.623,0-1.216,0.058-1.747,0.161
		c-0.53,0.102-1,0.252-1.385,0.438c-0.389,0.186-0.694,0.404-0.894,0.649c-0.201,0.245-0.295,0.513-0.258,0.794l2.08,17.025
		c0.032,0.288,0.195,0.562,0.456,0.812c0.262,0.249,0.626,0.476,1.064,0.664c0.438,0.188,0.951,0.34,1.511,0.445
		c0.563,0.104,1.175,0.165,1.81,0.165h56.733c0.635,0,1.228-0.061,1.763-0.165c0.529-0.105,1-0.258,1.385-0.445
		c0.385-0.191,0.686-0.415,0.88-0.664c0.192-0.25,0.278-0.523,0.233-0.812l-2.657-17.025
		C957.354,772.158,957.185,771.891,956.917,771.646z M205.679,675.861c0.326,0.154,0.73,0.281,1.189,0.369
		c0.463,0.088,0.984,0.137,1.543,0.137h40.368c0.557,0,1.098-0.049,1.604-0.135c0.5-0.09,0.964-0.215,1.363-0.371
		c0.4-0.158,0.737-0.342,0.987-0.548c0.25-0.207,0.415-0.434,0.466-0.673l2.063-9.316c0.051-0.234-0.01-0.458-0.168-0.662
		c-0.156-0.205-0.412-0.389-0.74-0.544c-0.329-0.153-0.73-0.279-1.191-0.365c-0.461-0.088-0.979-0.136-1.534-0.136h-40.087
		c-0.555,0-1.095,0.048-1.594,0.133c-0.504,0.088-0.966,0.213-1.366,0.366c-0.399,0.155-0.738,0.34-0.993,0.544
		c-0.253,0.203-0.421,0.429-0.479,0.662l-2.311,9.317c-0.059,0.238-0.001,0.465,0.15,0.672
		C205.103,675.52,205.351,675.703,205.679,675.861z M259.925,675.861c0.331,0.156,0.74,0.284,1.205,0.371
		c0.463,0.086,0.984,0.135,1.543,0.135l40.367,0.001c0.559,0,1.098-0.05,1.602-0.136c0.498-0.087,0.957-0.214,1.354-0.369
		c0.394-0.157,0.725-0.342,0.97-0.549c0.243-0.204,0.399-0.434,0.444-0.674l1.787-9.315c0.046-0.233-0.024-0.458-0.188-0.662
		c-0.16-0.206-0.42-0.389-0.754-0.542c-0.333-0.155-0.743-0.279-1.204-0.366c-0.463-0.088-0.982-0.135-1.538-0.135l-40.085-0.001
		c-0.556,0-1.091,0.046-1.593,0.134c-0.497,0.086-0.958,0.212-1.354,0.366c-0.396,0.155-0.729,0.338-0.976,0.543
		c-0.25,0.204-0.41,0.428-0.462,0.662l-2.031,9.316c-0.053,0.239,0.011,0.466,0.168,0.673
		C259.34,675.52,259.593,675.706,259.925,675.861z M314.175,675.865c0.338,0.155,0.748,0.28,1.216,0.367
		c0.466,0.088,0.986,0.136,1.542,0.136l40.375,0.003c0.559,0,1.095-0.051,1.593-0.137c0.497-0.088,0.956-0.214,1.345-0.369
		c0.39-0.156,0.715-0.344,0.958-0.551c0.233-0.204,0.386-0.433,0.425-0.673l1.508-9.313c0.038-0.235-0.037-0.461-0.211-0.662
		c-0.168-0.207-0.433-0.392-0.771-0.545c-0.337-0.153-0.75-0.278-1.216-0.365c-0.467-0.088-0.983-0.136-1.535-0.136h-40.095
		c-0.553,0-1.087,0.048-1.584,0.136c-0.493,0.086-0.952,0.212-1.344,0.365c-0.39,0.153-0.721,0.336-0.964,0.542
		c-0.243,0.204-0.396,0.43-0.439,0.662l-1.756,9.315c-0.046,0.24,0.025,0.47,0.19,0.674
		C313.578,675.521,313.84,675.706,314.175,675.865z M368.424,675.865c0.341,0.155,0.755,0.281,1.224,0.371
		c0.466,0.084,0.99,0.135,1.545,0.135l40.375,0.001c0.559,0,1.097-0.049,1.592-0.136c0.494-0.088,0.946-0.214,1.332-0.369
		c0.384-0.157,0.705-0.344,0.936-0.551c0.233-0.205,0.375-0.432,0.405-0.673l1.234-9.315c0.03-0.232-0.053-0.457-0.227-0.662
		c-0.172-0.203-0.444-0.388-0.786-0.542c-0.343-0.154-0.757-0.279-1.226-0.365c-0.471-0.088-0.992-0.135-1.546-0.135l-40.092-0.004
		c-0.553,0-1.087,0.048-1.578,0.136c-0.49,0.087-0.941,0.212-1.33,0.365c-0.387,0.153-0.709,0.338-0.942,0.545
		c-0.233,0.204-0.385,0.427-0.421,0.662l-1.479,9.313c-0.039,0.24,0.037,0.469,0.21,0.673
		C367.817,675.521,368.084,675.709,368.424,675.865z M422.67,675.868c0.345,0.155,0.763,0.28,1.234,0.368
		c0.471,0.087,0.998,0.136,1.555,0.136l40.366,0.002c0.558,0,1.094-0.05,1.587-0.138c0.494-0.087,0.939-0.213,1.321-0.368
		c0.382-0.157,0.694-0.345,0.919-0.551c0.226-0.206,0.364-0.432,0.388-0.672l0.954-9.314c0.025-0.235-0.063-0.46-0.246-0.664
		c-0.181-0.204-0.456-0.389-0.802-0.543c-0.346-0.154-0.765-0.278-1.239-0.364c-0.469-0.088-0.993-0.136-1.545-0.136h-40.084
		c-0.556,0-1.088,0.047-1.58,0.135c-0.491,0.086-0.94,0.211-1.322,0.365c-0.381,0.154-0.7,0.339-0.927,0.543
		c-0.231,0.204-0.37,0.429-0.402,0.662l-1.204,9.314c-0.029,0.241,0.054,0.468,0.232,0.673
		C422.052,675.523,422.325,675.71,422.67,675.868z M476.91,675.868c0.35,0.155,0.772,0.281,1.248,0.368
		c0.472,0.088,1,0.138,1.559,0.138h40.372c0.559,0,1.091-0.048,1.58-0.137c0.488-0.085,0.932-0.214,1.307-0.369
		c0.377-0.155,0.686-0.343,0.904-0.548c0.217-0.209,0.349-0.433,0.364-0.673l0.679-9.314c0.018-0.237-0.076-0.461-0.265-0.666
		c-0.188-0.203-0.468-0.387-0.818-0.539c-0.352-0.156-0.771-0.279-1.247-0.366c-0.472-0.088-0.993-0.136-1.545-0.136l-40.089-0.002
		c-0.556,0-1.09,0.048-1.577,0.136c-0.488,0.086-0.932,0.21-1.311,0.364c-0.377,0.154-0.689,0.339-0.914,0.543
		c-0.222,0.204-0.357,0.429-0.38,0.664l-0.925,9.314c-0.025,0.24,0.065,0.466,0.25,0.672
		C476.283,675.523,476.56,675.711,476.91,675.868z M531.154,675.87c0.353,0.155,0.781,0.282,1.257,0.367
		c0.476,0.089,1.003,0.138,1.563,0.138l40.368,0.003c0.559,0,1.09-0.051,1.578-0.139c0.484-0.086,0.927-0.213,1.302-0.369
		c0.37-0.157,0.676-0.343,0.886-0.548c0.217-0.208,0.337-0.435,0.349-0.675l0.401-9.313c0.012-0.237-0.091-0.462-0.285-0.665
		c-0.196-0.204-0.48-0.389-0.839-0.542c-0.356-0.155-0.783-0.279-1.258-0.365c-0.477-0.089-1-0.136-1.552-0.136l-40.09-0.001
		c-0.554,0-1.082,0.048-1.567,0.136c-0.486,0.087-0.927,0.21-1.3,0.366c-0.375,0.153-0.681,0.338-0.902,0.539
		c-0.215,0.205-0.345,0.429-0.36,0.666l-0.647,9.314c-0.019,0.24,0.077,0.464,0.269,0.673
		C530.517,675.527,530.797,675.713,531.154,675.87z M585.399,675.87c0.356,0.156,0.786,0.283,1.264,0.371
		c0.478,0.086,1.004,0.137,1.562,0.137h40.373c0.557,0,1.091-0.051,1.572-0.137c0.486-0.088,0.921-0.215,1.29-0.37
		c0.367-0.154,0.668-0.344,0.873-0.547c0.208-0.21,0.32-0.437,0.326-0.674l0.125-9.314c0.003-0.237-0.105-0.46-0.305-0.665
		c-0.202-0.203-0.492-0.387-0.855-0.54c-0.36-0.156-0.787-0.281-1.267-0.365c-0.478-0.088-1.005-0.137-1.561-0.137l-40.088-0.002
		c-0.552,0-1.079,0.047-1.562,0.136c-0.481,0.086-0.917,0.21-1.286,0.365c-0.366,0.153-0.667,0.338-0.88,0.542
		c-0.212,0.203-0.33,0.429-0.34,0.665l-0.371,9.313c-0.013,0.239,0.093,0.466,0.288,0.674
		C584.752,675.527,585.039,675.713,585.399,675.87z M639.635,675.871c0.367,0.155,0.799,0.282,1.28,0.372
		c0.485,0.084,1.014,0.135,1.573,0.135l40.359,0.003c0.56,0,1.088-0.05,1.569-0.138c0.481-0.09,0.918-0.213,1.28-0.368
		c0.361-0.158,0.651-0.345,0.855-0.55c0.2-0.207,0.309-0.437,0.305-0.675l-0.15-9.313c-0.006-0.235-0.123-0.46-0.327-0.664
		s-0.501-0.389-0.866-0.542c-0.364-0.156-0.8-0.28-1.281-0.366c-0.484-0.088-1.01-0.135-1.565-0.135l-40.077-0.002
		c-0.554,0-1.08,0.049-1.563,0.137c-0.48,0.084-0.913,0.209-1.276,0.365c-0.364,0.153-0.661,0.339-0.865,0.54
		c-0.207,0.205-0.317,0.428-0.32,0.665l-0.098,9.314c-0.002,0.238,0.109,0.464,0.311,0.674
		C638.98,675.528,639.273,675.717,639.635,675.871z M692.997,675.325c0.21,0.205,0.505,0.392,0.875,0.55
		c0.367,0.155,0.805,0.278,1.292,0.368c0.483,0.088,1.018,0.138,1.575,0.138h40.368c0.553,0,1.081-0.05,1.561-0.136
		c0.478-0.09,0.907-0.215,1.265-0.37c0.357-0.157,0.644-0.343,0.837-0.55c0.195-0.207,0.298-0.434,0.286-0.671l-0.43-9.315
		c-0.007-0.236-0.133-0.461-0.344-0.664c-0.212-0.204-0.513-0.388-0.881-0.541c-0.367-0.156-0.805-0.282-1.291-0.367
		c-0.482-0.086-1.009-0.135-1.559-0.135l-40.088-0.001c-0.556,0-1.084,0.047-1.56,0.135c-0.479,0.086-0.911,0.21-1.268,0.366
		c-0.359,0.153-0.647,0.338-0.851,0.542c-0.196,0.204-0.306,0.429-0.3,0.664l0.179,9.313
		C692.672,674.889,692.789,675.118,692.997,675.325z M747.218,675.325c0.214,0.207,0.518,0.393,0.891,0.55
		c0.374,0.155,0.816,0.281,1.304,0.37c0.484,0.087,1.02,0.136,1.575,0.136h40.366c0.558,0,1.084-0.047,1.56-0.136
		c0.473-0.086,0.898-0.213,1.254-0.368c0.351-0.157,0.63-0.343,0.821-0.549c0.188-0.208,0.281-0.436,0.263-0.674l-0.704-9.313
		c-0.018-0.235-0.144-0.461-0.365-0.664c-0.217-0.204-0.523-0.389-0.898-0.543c-0.372-0.154-0.813-0.279-1.297-0.365
		c-0.485-0.088-1.017-0.135-1.567-0.135l-40.083-0.002c-0.556,0-1.078,0.049-1.554,0.135c-0.476,0.085-0.902,0.211-1.255,0.367
		c-0.357,0.153-0.645,0.337-0.834,0.541c-0.194,0.203-0.297,0.428-0.287,0.666l0.459,9.313
		C746.877,674.892,747,675.118,747.218,675.325z M801.441,675.328c0.222,0.206,0.528,0.392,0.906,0.549
		c0.377,0.155,0.821,0.282,1.311,0.368c0.489,0.089,1.021,0.137,1.575,0.137h40.37c0.558,0,1.083-0.048,1.556-0.134
		c0.478-0.089,0.896-0.215,1.246-0.371c0.349-0.156,0.623-0.342,0.806-0.548c0.184-0.208,0.271-0.435,0.246-0.674l-0.98-9.314
		c-0.027-0.234-0.163-0.457-0.386-0.662c-0.225-0.205-0.538-0.389-0.913-0.543c-0.379-0.155-0.826-0.28-1.314-0.365
		c-0.489-0.089-1.021-0.133-1.579-0.133l-40.081-0.004c-0.552,0-1.074,0.048-1.546,0.135c-0.472,0.086-0.894,0.211-1.243,0.365
		c-0.348,0.154-0.627,0.339-0.815,0.543c-0.186,0.204-0.28,0.429-0.261,0.664l0.733,9.313
		C801.089,674.895,801.22,675.121,801.441,675.328z M855.655,675.331c0.229,0.204,0.545,0.39,0.924,0.546
		c0.381,0.156,0.832,0.283,1.322,0.372c0.494,0.085,1.032,0.133,1.59,0.133l40.357,0.002c0.558,0,1.08-0.048,1.556-0.135
		c0.47-0.088,0.888-0.216,1.231-0.369c0.344-0.156,0.614-0.344,0.791-0.549c0.175-0.21,0.257-0.436,0.222-0.674l-1.251-9.314
		c-0.037-0.236-0.178-0.459-0.407-0.662c-0.231-0.206-0.55-0.389-0.934-0.544c-0.383-0.153-0.829-0.28-1.32-0.364
		c-0.497-0.088-1.029-0.135-1.581-0.135H858.08c-0.553,0-1.078,0.044-1.547,0.133c-0.472,0.085-0.889,0.213-1.234,0.365
		c-0.347,0.154-0.619,0.338-0.799,0.543c-0.182,0.205-0.271,0.428-0.245,0.662l1.012,9.316
		C855.292,674.895,855.429,675.121,855.655,675.331z M909.869,675.331c0.235,0.205,0.554,0.393,0.941,0.549
		c0.384,0.153,0.839,0.281,1.337,0.369c0.494,0.087,1.031,0.135,1.589,0.135l40.356,0.002c0.56,0,1.08-0.048,1.548-0.135
		c0.468-0.09,0.883-0.214,1.223-0.37c0.34-0.157,0.605-0.342,0.776-0.549c0.167-0.207,0.244-0.434,0.205-0.672l-1.534-9.316
		c-0.041-0.234-0.189-0.457-0.427-0.662c-0.235-0.204-0.56-0.389-0.948-0.543c-0.385-0.152-0.84-0.28-1.333-0.366
		c-0.493-0.087-1.029-0.134-1.586-0.134l-40.07-0.001c-0.553,0-1.076,0.047-1.541,0.135c-0.469,0.084-0.886,0.211-1.228,0.364
		c-0.338,0.156-0.604,0.338-0.781,0.544c-0.176,0.203-0.255,0.429-0.225,0.662l1.288,9.314
		C909.496,674.896,909.636,675.121,909.869,675.331z M964.084,675.332c0.24,0.207,0.566,0.392,0.96,0.549
		c0.39,0.156,0.851,0.28,1.345,0.37c0.496,0.087,1.034,0.135,1.593,0.135l40.362,0.001c0.557,0,1.074-0.049,1.543-0.135
		c0.466-0.089,0.875-0.215,1.21-0.371c0.334-0.154,0.595-0.342,0.761-0.548c0.165-0.206,0.23-0.433,0.185-0.672l-1.807-9.314
		c-0.048-0.236-0.204-0.46-0.448-0.663c-0.244-0.205-0.572-0.389-0.966-0.543c-0.392-0.154-0.848-0.28-1.345-0.365
		c-0.496-0.088-1.03-0.135-1.582-0.135H965.81c-0.548,0-1.07,0.045-1.531,0.133c-0.467,0.085-0.878,0.213-1.216,0.365
		c-0.335,0.154-0.6,0.339-0.771,0.543c-0.167,0.205-0.242,0.429-0.203,0.662l1.563,9.316
		C963.693,674.898,963.845,675.125,964.084,675.332z M1018.297,675.333c0.241,0.206,0.575,0.394,0.973,0.548
		c0.396,0.158,0.859,0.284,1.358,0.371c0.504,0.086,1.047,0.135,1.606,0.135l40.353,0.002c0.555,0,1.075-0.05,1.538-0.134
		c0.466-0.087,0.872-0.216,1.2-0.371c0.333-0.157,0.582-0.342,0.741-0.548c0.159-0.209,0.222-0.436,0.167-0.675l-2.088-9.313
		c-0.051-0.234-0.214-0.458-0.461-0.663c-0.25-0.203-0.582-0.39-0.98-0.542c-0.397-0.156-0.858-0.28-1.359-0.367
		c-0.496-0.088-1.036-0.133-1.592-0.133l-40.068-0.002c-0.555,0-1.073,0.047-1.537,0.135c-0.467,0.085-0.87,0.211-1.204,0.365
		s-0.591,0.338-0.757,0.543c-0.163,0.203-0.229,0.427-0.184,0.663l1.841,9.314C1017.891,674.9,1018.05,675.127,1018.297,675.333z
		 M1072.51,675.336c0.254,0.206,0.589,0.391,0.99,0.548c0.399,0.156,0.865,0.284,1.366,0.371c0.505,0.084,1.048,0.134,1.604,0.134
		l40.354,0.001c0.559,0,1.079-0.049,1.539-0.134c0.462-0.088,0.863-0.216,1.187-0.372c0.326-0.156,0.575-0.342,0.727-0.548
		c0.151-0.207,0.207-0.434,0.146-0.672l-2.367-9.314c-0.056-0.236-0.228-0.46-0.483-0.663c-0.253-0.204-0.593-0.388-0.992-0.543
		c-0.405-0.155-0.865-0.28-1.37-0.364c-0.498-0.088-1.041-0.135-1.593-0.135h-40.069c-0.557,0-1.072,0.045-1.533,0.132
		c-0.457,0.086-0.859,0.212-1.189,0.367c-0.326,0.151-0.579,0.338-0.731,0.541c-0.162,0.205-0.22,0.429-0.168,0.663l2.12,9.313
		C1072.096,674.9,1072.261,675.127,1072.51,675.336z"/>
</g>
<g>
	<linearGradient id="SVGID_15_" gradientUnits="userSpaceOnUse" x1="875.5908" y1="612.1455" x2="875.5908" y2="110.1124">
		<stop  offset="0" style="stop-color:#E0E0E0"/>
		<stop  offset="0.0564" style="stop-color:#D4D4D4"/>
		<stop  offset="0.2483" style="stop-color:#AEAEAE"/>
		<stop  offset="0.4398" style="stop-color:#919191"/>
		<stop  offset="0.6285" style="stop-color:#7C7C7C"/>
		<stop  offset="0.8131" style="stop-color:#6F6F6F"/>
		<stop  offset="0.9888" style="stop-color:#6B6B6B"/>
	</linearGradient>
	<path fill="url(#SVGID_15_)" d="M634.429,114.059c13.425,129.903,63.912,383.851,253.618,503.058h228.706l-10.865-503.058H634.429z
		"/>
</g>
<polygon fill="none" stroke="#474747" points="1116.753,617.116 205.737,617.116 218.157,114.059 1105.888,114.059 "/>
</svg>
